<svg xmlns="http://www.w3.org/2000/svg" width="493.92" height="46.127"><g fill="#175A8B"><path d="M11.602 29.834c1.467-.258 2.731.572 3.537.028-.754-.09-4.098-.47-3.537-.028zm.506-19.829l2.479.019c.087-.807-2.186-.218-2.479-.019zM4.725 4.169c-1.191.116-3.286-.272-3.896.162 1.193-.109 3.285.276 3.896-.162zM262.004 0c-5.155.981-14.009 1.679-19.463.234-.554.684 1.201.126 1.056.584-3.716.149-6.935-.088-9.908.12 3.829.936 8.022.038 9.893 1.809 8.105-.425 13.211-.478 18.422-2.747zM7.848 11.707c-1.327.215-3.784.307-3.538.356 3.149.562 8.053.814 10.612.275-.555-.025-1.228.016-1.058-.395-2.87.076-4.096.517-6.725.142.431-.017.839-.052.709-.378zM0 19.926c1.079-.114 3.047.271 3.541-.166-1.281-.253-2.385-.263-3.541.166zM261.278 2.688c.399-.551.752-1.128 1.426-1.525-1.081-.151-1.29.184-2.127.176-.035.595.153 1.067.701 1.349zm21.191 4.98c-.63-.438-3.282-.793-4.241-.417 1.155.4 3.559.838 4.241.417zM21.528 27.602c-.666-.052.204-.318-.352-.388.156.315-1.932.3-1.77-.014.195.002.405-.152.002-.192-.109.519-1.49.334-1.775.757 2.134-.076 3.117.038 3.895-.163zM6.051 15.735c.001-.195.288-.228.357-.383-.646-.203-4.116-.034-3.543.359.454-.004.493-.244 1.063-.185.489.689 7.411.251 2.123.209zm7.05 3.523c1.265.095 3.826.503 4.951.039-1.883.191-3.913-.682-4.951-.039zm10.616-.305c-.154-.316-2.67-.336-2.83-.021.927-.098 2.637.943 2.83.021zM92.845 2.735c-.507-.051-.596-.324-1.061-.396.149.535-1.319.173-1.419.566.733-.105 2.324.26 2.48-.17zm-80.45 16.131c-1.068.467-2.565-.31-2.832.366.887-.157 3.041.396 2.832-.366z"/><path d="M25.127 19.733c.139-.207.428-.458.001-.19-1.147.181-2.67-.212-2.831-.213-6.439-.075-1.436.688 2.83.403zm-11.038 8.965c-1.938.093-6.537-.274-6.726.143 2.511-.331 5.468.749 6.726-.143zm27.77-22.123c-1.631.226-3.134-.614-4.246-.033 1.256.308 5.238.154 4.246.033zM2.565 8.584c1.912-.389 2.854.316 4.251-.354-1.283.193-4.101-.47-4.251.354zm37.913-6.642l.005-.575c-.875-.037-1.715-.051-1.772.371.488.012.779-.086 1.065-.185.036.237.101.457.702.389zm15.204 1.854c1.26-.606 3.669.4 4.251-.738-4.88.139-12.087-.948-16.627-.516 4.153.694 9.188.696 13.084 1.066-.273.041-.699-.001-.708.188zm5.306-.151c4.023-.383 10.499.299 13.801-.086-3.603-.254-10.916-.766-14.503-.304 1.031-.047 1.215.055.702.39zm19.463.149c-.082-.296-.582-.033-.709.188l4.248.033c.77-.365-2.59-.142-3.539-.221zM65.958 1.95c-1.1-.575-3.706-.273-5.306-.042 1.987-.224 4.202.43 5.306.042zm123.844.185c-1.567.102-3.391.055-4.602.353 1.795.027 3.622.071 4.602-.353zm9.549.846c-1.12-.051-2.798-.794-3.893-.225.207.727 3.271.845 3.893.225zM12.891.382c-1.826.015-4.42-.568-6.014-.046 1.941.101 4.925.614 6.014.046zM9.295 7.865c3.776-.101 8.488.32 11.679-.104l-6.016-.047c-1.776.114-4.473-.283-5.663.151zm.734-3.269c1.624.029 4.853.309 6.369.049-1.773-.062-5.624-.667-6.369-.049zm16.247 3.592c-.465-.004-.319-.34-.704-.39.166 1.023-1.246-.65-1.771.179.943-.1 1.799.808 2.475.211zm165.296-6.039c3.84-.191 7.664-.391 10.976-.875-3.913.149-7.844.29-10.976.875zm33.257.645c-3.187.103-7.308-.313-9.911.113 4.193.284 7.071.323 9.911-.113zM16.956 24.1c-1.227.142-1.492-.224-2.121-.4-.268.362-1.059.125-.358.576-.417.025-1.005-.045-1.064.181.258.154 3.843-.228 3.543-.357zm-.036 4.621c3.813-.028 7.362-.284 9.558-.696-4.594.219-7.045.117-9.558.696zm264.692-1.996c-.993-.455-2.808.388-3.892-.225.196.007.406-.148.002-.189-1.545.866 3.318.705 3.89.414zm-220.09-8.733c0-1.512-1.116-2.412-2.952-2.375h-5.04v4.896h5.04c1.836-.001 2.952-.937 2.952-2.521zm120.022-2.087c-3.779 0-6.947 3.096-6.947 7.199 0 4.104 3.204 7.271 6.947 7.271 3.78 0 6.803-3.168 6.803-7.271 0-4.104-3.023-7.199-6.803-7.199zM58.57 25.3h-5.04v5.291h5.04c2.304 0 3.744-1.008 3.744-2.736 0-1.584-1.44-2.591-3.744-2.555zm220.577-.325c-.355-.305-4.35-.335-3.537-.027 1.367-.208 3.107.369 3.537.027zM26.967 10.508c-.776-.938-3.732.208-4.6-.036 1.3.527 2.741-.199 4.6.036zm-8.862 1.855c4.267.13 4.576.125 7.79-.326-3.662-.065-5.499-.451-7.79.326z"/><path d="M282.628 32.704c-1.09-.476-5.094.553-6.013-.432-.104-.446 1.024-.208 1.066-.57-1.014-.037-2.764.515-3.537-.028 2.248-.207 5.113-.548 7.433-.328-.244-.381-1.977.033-2.118-.399.273-.043.695 0 .707-.189-1.482.019-.851-.107-.351-.387-.953.125-.685-.402-1.058-.586-1.609.336-3.64-.209-3.17-1.566-1.001-.04-2.428.149-2.475-.403.941.007 1.887.016 2.829.022l-.004.577c.737-.107 2.32.256 2.479-.175-.621-.116-2.079.218-2.122-.207 1.564-.094 2.479.023 3.188-.169-.414-.037-.382-.31-.352-.579-2.702.038-5.451.098-6.007-1.007.529-.032 1.304.077 1.416-.186.055-.677-1.181-1.275-2.46-1.751 2.977-.177 5.583.489 6.721-.141-2.189-.814-4.514.031-6.363-.434 1.251-.689 6.383.335 7.434-.519-1.204-.215.982-.054.357-.576-1.3-.116-1.561-.812-2.82-1.367.063.418-.294.607-1.065.567-.33-.207-1.303-.07-1.056-.584 1.341-.008 3.104-.184 3.893-.358-.659-.287-2.346-.027-2.827-.406 1.473-.016.074-.128.004-.387 1.595-.143 3.047.792 3.891.417-.412-.037-.384-.308-.351-.582-.358-.385-2.522.388-3.183-.215.344-.194.704-.385 1.063-.572.798.1 2.648.615 3.185.217-1.977-.712-2.385-.481-4.234-1.571 1.183-.404.293-.834.012-1.734.881.034 1.719.049 1.775-.373-1-.04-2.43.149-2.476-.403.145-1.604 2.413-.072 3.188-.362-.604-.377-1.517-.595-1.76-1.167.695.063.704-.258 1.065-.378 1.002-.194 2.424.335 2.476.02-.524-.168-.509-.625-.699-.968-4.324.134-6.132-1.07-7.767-2.374 1.526-2.324 8.232-.375 10.974-.489-2.645-.569-5.368-1.095-8.482-1.416 1.26.029-.262-1.119-.347-.964.042-.078.126-.118.226-.136-.07-.018-.14-.034-.224-.057-1.044-.275-1.283-1.391-.698-1.16-2.209-.866-6.687-.536-8.833-1.996 2.894-.008 5.667-.083 7.791-.518-2.854.033-7.058.341-9.199.123 1.424-.306 3.409-.301 4.249-.932-3.981.311-8.209 1.507-12.745.866.611.015.911-.141 1.063-.376-20.607.233-40.042 1.421-60.514.877-5.028-.133-10.323-.028-14.024-.515 1.315-.014 3.128.247 3.771-.141-1.228.107-3.228-.22-4.077.094-.296-.043-.604-.081-.876-.133-14.029.372-27.43-.358-40.335-.891.103.381-.48.378-.712.572.66.033 1.184.136 1.415.395-2.389.25-2.993-1.462-4.951-.806.527.229 1.447.25 1.766.591-1.576.485-3.469-.125-3.542.55 7.885-.221 12.124-.053 20.517.737-4.264.304-13.91-1.045-11.325.106-.93-.011-2.351.087-1.412-.397-1.045.347-4.023-.388-2.481.367-2.867-.915-14.59.406-13.788-1.266-.242.52-4.437-.148-3.54.359.876-.021 1.714-.022 1.763.4-7.094-.28-13.483.596-22.646.018.866-.101 1.296-.441 1.776-.758-5.843 1.275-12.878.433-20.179 1.193 4.422.104 8.345.338 13.088.484-5.398.042-16.544.682-19.106-.34-1.455-.099.336.521-1.064.569-.891.076-1.639-.89-2.119-.402-8.293.109-20.036.298-28.312.365 1.017.496.612.201 1.771.013.011.266-.171.42-.359.574 1.314-.18.927-.404 2.478-.171-.713.386-.096.511.35.771-1.745-.121-4.057.452-4.606.35 1.494-.042-.188-.831-.35-.388-.425.593-5.346.702-8.499.9 1.064.261 3.03.042 3.888.414-.006.253-.622.172-.708.378 1.748-.168.187.754 1.765.207-.326.333-.663.664-1.771.564.053-.477-.178-.799-.703-.966-.571.025-.442.355-1.771.37-.429.888 1.493-.325 1.765.398-.869.247.386.72-.359.768-2.158-.25-2.718-.422-4.956.155.444-.621-1.142-.157-.701-.777-3.979.89-13.497-.491-14.513.466-1.462-.191-.299-.591-1.761-.785-.404 1.099-.494-.4-1.415-.206-.922.579-.709.524-.714.959l-1.062-.008c-.013-.265.17-.419.356-.575-2.592.11-6.375-.44-7.433.521.271.3 4.082.33 3.184.025-.728-.123-2.461.291-2.119-.401 1.773.136 4.477-.22 5.658.234.157.538-1.925-.168-1.77.374 7.771.391 14.637.46 21.223.738-.431-.021-.837-.061-.703-.389 2.268.22 2.856.501 3.533.797.663-.038-.199-.316.357-.383.542.445.733.374 1.766.208-.053.228-.635.434-.005.578.927-1.203 4.319-.014 4.954.038-2.073-.182-4.341.992-5.309.152-4.451.828-6.824.584-10.627 1.458-.846.111-2.562-.263-2.831.169l3.184.025c.488.013.778-.086 1.062-.184.318.342 1.301.329 1.41.779-1.188.168-.312.428-.006.771-.609-.051-2.099.349-1.064.572.051-.498 1.572.777 2.122.017-.416-.036-1.004.025-1.061-.203 2.453.328 5.287-.636 6.015.431-1.403.061-2.16-.47-2.834.171.418.033 1.006-.025 1.06.202-2.683.145-8.75-.473-10.261-.08-.447-.485.185-.603-.348-.773-4.476.756-10.559-.215-14.866.462 10.357.291 14.79.4 22.64 1.139-4.897.775-12.339-.452-19.819.232 5.654.43 10.427.086 14.503.689-.275.041-.698.001-.709.185 1.175.071 2.176.049 2.48-.365.42.382 2.939.945 1.416.205 3.054.194 4.899.802 7.423.826-4.587.46-6.754.285-10.973.494 1.003.288 4.321.771 4.243.228.567.565 1.827-.295 2.124.209-2.085.726-4.477-.205-6.02.53 1.227.603 3.367-.439 3.888.416-1.694-.418-3.708.473-5.313.729 1.561.004 3.042.164 3.538.22-1.376.405-3.311-.177-4.958.346.743.4 3.053-.451 2.826.793-.708-.086-2.621-.498-3.185-.025 1.421-.028 1.583.062.704.39 1.68-.071.982-.205 1.415.203 1.139-.483 5.682-.656 7.076.247-2.697-.294-3.613-.163-6.373.338 1.81.183 2.907-.049 5.306.041l-.004.579c1.137.178.491-.634 1.421-.568-.49.772.628.686 1.054.971-2.599-.318-2.333.154-4.958.346 1.614.084 1.46.253 2.829.405-1.854.422.969-.281 1.06.204-1.438.496-6.216.161-6.023.919.008-.255.983-.24 1.062.008-.78.273-2.635-.046-2.836.552 1.479.547 1.486-.738 3.539.027-.722-.113-2.656.039-1.418.374.727-.312 3.876-.288 4.601.036-2.683.554-6.691-.169-8.502 1.091 2.668.108 6.139-.211 7.782.443-.218.33-1.679-.023-1.772.374.604.903 2.885-.273 3.534.606-2.356.09-3.14-.125-4.25.542 1.57.002 4.437-.385 7.076.056-1.749.094.366.102.354.388-2.083.545-3.416-.072-6.021.335 1.444.131 3.854-.051 2.473.601.836-.128 3.167-.419 3.892.031-.38.255-2.917.298-2.127.559 1.332-.136 2.545-.214 3.538.027-1.457-.097-1.106.807-2.835.557 0-.191.289-.227.356-.38-.974.976-3.492-.603-2.48.557-3.255-.126-6.303-1.038-8.139-.06 2.16-.122 3.784-.204 5.657.425-.372.198-3.034.099-2.126.37 2.911-.216 4.594.231 5.655 1.01 1.012-.46 3.492.188 6.016-.152-.02.249-.456.264-.357.576 1.932-.009 3.771.028 4.95.426-.962.109-2.805-.266-3.187.169 1.6-.043 2.059.545 3.532.988-1.368.11-6.13-.361-4.247.354-2.724-.174-5.56.363-5.662-.239-1.508.625-6.488.368-7.436.521-2.199.353 1.161.234.353.196 2.196.1 5.287-.511 6.718.438-2.303-.051-6.396-.072-6.724.333 2.384-.364 2.915.591 4.954.039-.417-.034-1.005.022-1.061-.204 3.152.62 5.352-.397 7.433-.133.526.067.842.525 1.412.586.059.01.003-.473.355-.381.177.047.612.532 1.057.586 1.741.198 4.387-.612 6.72.435-5.449.411-14.026-.257-19.823.812 3.632.188 8.88-.688 11.324.089.057-.228-.056-.55.359-.574 2.484.712 7.09.391 9.897 1.23-1.098-.078-2.22.812-2.835.36-.249-.521 1.667.153 1.42-.371-.591-.347-1.187.163-2.477-.02-.489.435.908.729-.006.77-2.07.015-4.404-.123-5.312.537 9.439.614 22.979.942 34.314 1.035-.629-.099.157-.201.355-.38-.619-.118-2.079.214-2.12-.212 7.052-.249 15.066-.595 19.818-.232-.575-.061-.957.255-.357.382.845-.27.869-.286 1.066-.567.56.195 1.422.191.703.581 3.078.095 6.341-.736 9.201-.119-.218.267-1.362.02-1.417.375 1.82.302 1.752-.444 2.833-.556-.083.363.396.428.349.77 5.025-.349 8.183-.614 12.383.29.795-1.705 5.164.828 5.308.042-.826-.068-1.522-.209-1.766-.593 7.735.204 13.489-1.698 20.529-.611.822.453.771 1.379 1.754 1.749-.552-.759.923-.393 1.068-.762-.643-.526-1.195-.046-1.764-.401 1.205-.194-.986-.069-.352-.58 13.875.15 27.581-.825 40.697-.454-.007.249-.619.168-.708.378 1.478-.175 2.295-.751 3.186-.357-.009.318-.982.099-1.066.373.919.505 6.897-1.146 7.434-.138.024.053-6.314-.381-1.417.186 5.964.695 10.713.101 16.099-.034-.3.049-.507.149-.535.351 3.349.461 7.043-.12 9.555.074-.273.038-.697-.002-.709.184 11.618-.233 29.896.707 41.409-1.026-.167-.673.892-.664 1.423-.956-.273-.043-.698-.006-.705-.191 5.121.356 8.561-.524 13.445.104-2.325-.01-6.348.066-7.436.52 3.338.041 6.593.046 8.499-.706 1.689.421 2.933.321 5.655.426.062-.225-.055-.545.36-.574.419.031.8.349 1.062.008-3.524-.991-9.083-.899-13.792-1.26 2.604-.918 6.048.098 8.142-.32-.28-1.028 5.446-.424 6.023-1.11-1.013-1.171-4.937.246-6.361-.821.33-.202 1.305-.048 1.064-.57-.63-.108-1.468-.107-1.766-.397 2.258-.222 3.986-1.726 3.203-2.478 1.76-.186 1.515.409 1.766.59-.136-.393 2.203.442 2.477-.17-.804.045-1.328-.059-1.411-.397 1.027-.246 2.515-.234 3.537.026.773-.328 5.75-.175 1.77-.378zM34.601 30.4c.674-.177 4.158-.523 4.243.222-1.159-.092-4.821.161-4.243-.222zm5.833-22.677l.002-.387 2.479.019c.279.736-1.675.231-2.481.368zm2.454 3.098c.045-.49 1.188-.372 2.125-.371.33.7-1.395.26-2.125.371zm.373-2.502c-.857-.36 2.335-.111 3.186-.167-.709.681-1.618.044-3.186.167zm16.137 27.383H46.944V11.026a6.103 6.103 0 01-1.229.009c.285-.064.73-.195 1.229-.328v-.239h1.014c.786-.157 1.559-.221 2.045 0h8.928c5.723 0 9.359 2.484 9.359 6.371 0 2.628-1.692 4.751-4.355 5.472 3.204.648 5.184 3.131 5.184 6.371-.002 4.321-3.782 7.02-9.721 7.02zm19.908 0h-6.587V10.469h6.587v25.233zm28.257 0h-5.759L90.358 20.584v15.118h-6.155V10.469h5.795l11.446 15.19v-15.19h6.119v25.233zm17.282-5.327c1.26 0 2.844-.433 4.355-1.188v-6.371h5.688v9.935c-2.7 1.871-6.983 3.239-10.511 3.239-7.703 0-13.498-5.544-13.498-12.887s5.939-12.814 13.93-12.814c3.779 0 7.775 1.439 10.367 3.743l-3.744 4.607c-1.8-1.691-4.355-2.771-6.659-2.771-4.067 0-7.127 3.132-7.127 7.235 0 4.14 3.095 7.272 7.199 7.272zM142.79 41.44l.002-.383 2.126.017c.328.696-1.396.258-2.128.366zm41.33-36.843c-.052-.228-.642-.168-1.058-.201 3.444-.509 5.695.087 1.058.201zm-10.965-.469c-1.041-.029-2.113-.342-3.89-.224-.205-.553 10.114.388 3.89.224zm-8.171 23.367c0 5.399-3.383 8.495-8.783 8.495-3.636 0-6.551-1.476-8.783-4.067l3.024-4.5c1.835 1.908 3.815 2.844 5.291 2.844 1.62 0 2.628-1.008 2.628-2.916V15.905h-8.639v-5.436h15.262v17.026zm16.488 8.495c-7.811 0-13.642-5.544-13.642-12.922 0-7.343 5.831-12.778 13.642-12.778s13.642 5.471 13.642 12.778c0 7.378-5.831 12.922-13.642 12.922zm14.682-31.3c-.123-.119 2.962-.188 4.244.033-1.284.268-3.937.274-4.244-.033zm25.6 31.012h-5.759l-11.446-15.118v15.118h-6.155V10.469h5.795l11.446 15.19v-15.19h6.119v25.233zm25.2 0h-20.265V10.469h19.906v5.255h-13.318v4.715h12.022v5.219l-12.022.036v4.751h13.678v5.257zm13.789.216c-4.211 0-8.603-1.548-11.626-4.031l2.556-5.147c2.592 2.232 6.515 3.815 9.143 3.815 1.943 0 3.168-.72 3.168-2.052 0-4.283-13.282-1.691-13.282-10.619 0-4.715 3.995-7.703 10.078-7.703 3.708 0 7.451 1.152 10.079 2.844l-2.483 5.219c-2.664-1.512-6.048-2.7-8.136-2.7-1.584 0-2.627.576-2.627 1.728 0 4.175 13.282 1.8 13.282 10.871 0 5.147-4.537 7.775-10.152 7.775z"/><path d="M33.692 10.363c-1.23.223-2.751.281-3.545.745 1.736.036 4.782.188 3.893.03-1.445.045.063-.267-.348-.775zm-20.564 5.235c1.236.039 2.267-.032 2.832-.361-1.098-.032-2.43-.382-2.832.361zm261.784-8.511c1.231.305.451-.085 0 0zM75.191 43.038c.854-.271 3.703-.003 2.832-.171-.776-.328-3.106-.313-2.832.171zm134.455 1.041c.848-.111 2.568.26 2.833-.172-.982-.234-2.151-.237-2.833.172zM16.353 10.425c3.286.386 3.842-.607 0 0zm221.603 33.68c4.354.037 9.194.838 12.734.676-3.487-.508-8.494-1.216-12.734-.676zm-12.377-.869c-.637.227-2.059.021-2.48.365.596.311 2.458.229 2.48-.365zM25.455 23.012c-2.088.884-2.53-.708-3.885-.802.19.74 3.261 2.1 3.885.802zm-7.846 8.026c.852-.248 3.335-.001 2.478-.173-.568-.381-2.443-.621-2.478.173zm7.084-.908c-1.31.113-3.525-.277-4.249.161 1.31-.114 3.525.276 4.249-.161zm93.295 15.742c1.191.075 3.562.512 4.598.036-1.22-.332-3.523-.687-4.598-.036zm154.65-2.27c.771-.029 1.123.166 1.056.586.945-.119 2.212-.064 2.831-.361-1.396.096-2.731-.828-3.887-.225zm-15.565-.697c1.701-.202 4.942.587 4.955.037-1.773.17-3.608-.622-4.955-.037z"/></g><path d="M306.181 19.324c0 5.939-3.707 9.396-10.15 9.396h-4.5v6.982h-6.586V10.469h11.086c6.443 0 10.15 3.24 10.15 8.855zm-6.263.216c0-2.483-1.548-3.815-4.212-3.815h-4.176v7.739h4.176c2.664 0 4.212-1.368 4.212-3.924zm35.17 3.528c0 7.378-5.831 12.922-13.642 12.922-7.812 0-13.643-5.544-13.643-12.922 0-7.343 5.831-12.778 13.643-12.778 7.811 0 13.642 5.471 13.642 12.778zm-20.517.036c0 4.104 3.203 7.271 6.946 7.271 3.78 0 6.804-3.168 6.804-7.271s-3.023-7.199-6.804-7.199c-3.779 0-6.946 3.095-6.946 7.199zm38.95 12.598l-3.671-6.982h-4.896v6.982h-6.587V10.469h11.339c6.695 0 10.51 3.24 10.51 8.855 0 3.815-1.583 6.623-4.499 8.135l5.255 8.243h-7.451zm-8.567-12.238h4.787c2.664 0 4.212-1.368 4.212-3.924 0-2.483-1.548-3.815-4.212-3.815h-4.787v7.739zm38.914-12.995v5.436h-7.559v19.797h-6.587V15.905h-7.487v-5.436h21.633zm17.82 25.233l-3.671-6.982h-4.896v6.982h-6.587V10.469h11.339c6.695 0 10.51 3.24 10.51 8.855 0 3.815-1.583 6.623-4.499 8.135l5.255 8.243h-7.451zm-8.566-12.238h4.787c2.664 0 4.212-1.368 4.212-3.924 0-2.483-1.548-3.815-4.212-3.815h-4.787v7.739zm36.287 7.775h-10.906l-1.764 4.463h-6.768l10.834-25.233h6.768l10.582 25.233h-7.019l-1.727-4.463zm-1.943-5.04L424.01 17.2l-3.528 8.999h6.984zm19.548-15.73v25.233h-6.587V10.469h6.587zm24.334 0v5.436h-7.56v19.797h-6.586V15.905h-7.488v-5.436h21.634zm11.917 5.075c-1.584 0-2.627.576-2.627 1.728 0 4.175 13.282 1.8 13.282 10.871 0 5.146-4.536 7.774-10.151 7.774-4.211 0-8.603-1.548-11.626-4.031l2.556-5.147c2.592 2.232 6.515 3.815 9.143 3.815 1.943 0 3.168-.72 3.168-2.052 0-4.283-13.282-1.691-13.282-10.619 0-4.715 3.995-7.703 10.078-7.703 3.708 0 7.451 1.152 10.079 2.844l-2.483 5.219c-2.666-1.511-6.049-2.699-8.137-2.699z" fill="#175A8B"/></svg>