<?xml version="1.0" encoding="utf-8"?>
<!-- Generator: Adobe Illustrator 15.0.0, SVG Export Plug-In . SVG Version: 6.00 Build 0)  -->
<!DOCTYPE svg PUBLIC "-//W3C//DTD SVG 1.1//EN" "http://www.w3.org/Graphics/SVG/1.1/DTD/svg11.dtd">
<svg version="1.1" id="Layer_1" xmlns="http://www.w3.org/2000/svg" xmlns:xlink="http://www.w3.org/1999/xlink" x="0px" y="0px"
	 width="115.416px" height="40.028px" viewBox="0 0 115.416 40.028" enable-background="new 0 0 115.416 40.028"
	 xml:space="preserve">
<path fill="#231F20" d="M1.158,0h7.355c1.451,0,2.726,0.54,3.824,1.619c0.53,0.596,0.898,1.168,1.103,1.717
	c0.251,0.679,0.377,1.298,0.377,1.856c0,1.554-0.577,2.889-1.731,4.005c-0.093,0.121-0.139,0.242-0.139,0.363
	c0,0.298,0.214,0.54,0.642,0.726c0.958,0.633,1.652,1.494,2.08,2.582c0.232,0.651,0.349,1.289,0.349,1.912
	c0,0.93-0.275,1.856-0.824,2.777c-0.67,1.042-1.586,1.763-2.749,2.163c-0.549,0.196-1.126,0.293-1.73,0.293H1.158
	c-0.41,0-0.753-0.224-1.033-0.67C0.042,19.147,0,18.984,0,18.854V1.158c0-0.409,0.223-0.753,0.67-1.033C0.865,0.042,1.028,0,1.158,0
	z M2.415,3.098v5.024c0,0.456,0.228,0.684,0.684,0.684h5.638c0.27,0,0.688-0.163,1.256-0.488c0.512-0.391,0.837-0.735,0.977-1.033
	c0.316-0.511,0.475-1.037,0.475-1.577V5.513c0-0.717-0.27-1.4-0.81-2.052C10.178,3.005,9.82,2.745,9.56,2.68
	C9.188,2.503,8.913,2.415,8.736,2.415H3.098C2.642,2.415,2.415,2.643,2.415,3.098z M2.415,11.89v5.024
	c0,0.456,0.246,0.684,0.739,0.684h6.783c0.326-0.019,0.753-0.186,1.284-0.502c0.949-0.707,1.424-1.609,1.424-2.708
	c0-0.949-0.391-1.781-1.172-2.498c-0.577-0.418-1.088-0.642-1.535-0.67H3.098C2.642,11.22,2.415,11.444,2.415,11.89z"/>
<path fill="#231F20" d="M23.073,0c0.465,0,0.814,0.251,1.047,0.753c0.037,0.159,0.056,0.344,0.056,0.559v17.389
	c0,0.614-0.219,1.019-0.656,1.214c-0.093,0.046-0.242,0.079-0.447,0.098c-0.465,0-0.819-0.251-1.061-0.754
	c-0.037-0.149-0.056-0.335-0.056-0.558V1.312c0-0.614,0.224-1.014,0.67-1.2C22.71,0.056,22.858,0.019,23.073,0z"/>
<path fill="#231F20" d="M27.541,0c0.465,0,0.814,0.251,1.047,0.753c0.037,0.159,0.056,0.344,0.056,0.559v17.389
	c0,0.614-0.219,1.019-0.656,1.214c-0.093,0.046-0.243,0.079-0.447,0.098c-0.466,0-0.819-0.251-1.061-0.754
	c-0.037-0.149-0.056-0.335-0.056-0.558V1.312c0-0.614,0.224-1.014,0.67-1.2C27.178,0.056,27.326,0.019,27.541,0z"/>
<path fill="#231F20" d="M18.214,6.35h0.083c0.475,0,0.879,0.223,1.214,0.669c0.158,0.251,0.237,0.502,0.237,0.754v0.153
	c0,0.456-0.224,0.847-0.67,1.172c-0.27,0.167-0.53,0.251-0.782,0.251H18.2c-0.456,0-0.851-0.214-1.186-0.642
	c-0.177-0.289-0.265-0.577-0.265-0.865c0-0.316,0.111-0.628,0.335-0.935C17.409,6.536,17.786,6.35,18.214,6.35z M18.187,17.026
	h0.139c0.484,0,0.894,0.242,1.228,0.726c0.13,0.251,0.196,0.488,0.196,0.711v0.112c0,0.475-0.229,0.875-0.684,1.2
	c-0.251,0.158-0.498,0.237-0.74,0.237h-0.139c-0.475,0-0.879-0.233-1.214-0.698c-0.149-0.289-0.223-0.554-0.223-0.796
	c0-0.325,0.111-0.646,0.335-0.963C17.428,17.203,17.795,17.026,18.187,17.026z"/>
<g>
	<path fill="#231F20" d="M56.397,25.749h3.601c1.117,0,2.149,0.391,3.098,1.173c0.475,0.455,0.781,0.818,0.921,1.088
		c0.483,0.801,0.727,1.628,0.727,2.484v8.359c0,0.382-0.187,0.712-0.559,0.991c-0.224,0.121-0.433,0.181-0.628,0.181
		c-0.521,0-0.898-0.245-1.131-0.739c-0.121-0.335-0.33-0.502-0.628-0.502c-0.131,0-0.409,0.135-0.837,0.404
		c-0.363,0.195-0.777,0.368-1.242,0.517c-0.754,0.215-1.419,0.32-1.996,0.32h-0.182c-1.247,0-2.363-0.479-3.35-1.437
		c-0.418-0.475-0.698-0.865-0.837-1.173c-0.335-0.706-0.502-1.386-0.502-2.037v-0.154c0-1.219,0.47-2.33,1.409-3.335
		c1.005-0.894,2.084-1.34,3.238-1.34h3.95c0.344,0,0.562-0.088,0.656-0.265c0.074-0.093,0.111-0.195,0.111-0.308v-0.056
		c-0.028-0.27-0.2-0.595-0.517-0.977c-0.344-0.335-0.637-0.539-0.879-0.614c-0.232-0.12-0.651-0.182-1.256-0.182h-3.168
		c-0.326,0-0.623-0.153-0.893-0.46c-0.167-0.232-0.251-0.456-0.251-0.67v-0.098c0-0.392,0.177-0.717,0.53-0.978
		C55.997,25.814,56.202,25.749,56.397,25.749z M55.253,35.295c0,0.642,0.27,1.224,0.809,1.744c0.484,0.383,0.958,0.572,1.424,0.572
		h0.237c0.79,0,1.595-0.245,2.414-0.739c0.912-0.577,1.563-1.41,1.954-2.498c0.084-0.326,0.145-0.586,0.182-0.782v-0.069
		c0-0.231-0.135-0.413-0.404-0.544c-0.065-0.009-0.117-0.015-0.154-0.015h-4.228c-0.559,0-1.093,0.247-1.605,0.74
		C55.462,34.198,55.253,34.729,55.253,35.295z"/>
	<path fill="#231F20" d="M68.595,20.013h0.111c0.399,0,0.734,0.209,1.005,0.628c0.103,0.159,0.153,0.424,0.153,0.795v3.698
		c0,0.299,0.168,0.494,0.503,0.587h3.056c0.019,0,0.028,0.009,0.028,0.027v1.87c-0.037,0.177-0.131,0.321-0.279,0.433
		c-0.111,0.065-0.274,0.098-0.488,0.098h-1.591c-0.512,0-0.889,0.232-1.131,0.698c-0.064,0.167-0.098,0.307-0.098,0.418v7.229
		c0,0.4,0.229,0.735,0.684,1.005c0.177,0.065,0.316,0.098,0.419,0.098h0.963c0.028,0,0.042,0.009,0.042,0.027v2.373
		c0,0.02-0.014,0.027-0.042,0.027h-1.145c-0.79,0-1.391-0.13-1.8-0.391c-0.623-0.315-1.089-0.884-1.396-1.702
		c-0.103-0.298-0.153-0.734-0.153-1.312V21.437c0-0.558,0.153-0.939,0.46-1.144C68.11,20.106,68.343,20.013,68.595,20.013z"/>
	<path fill="#231F20" d="M80.289,25.722c0.605,0,1.209,0.177,1.814,0.53c0.856,0.586,1.284,1.178,1.284,1.771
		c0,0.419-0.209,0.764-0.628,1.033c-0.195,0.104-0.4,0.153-0.614,0.153c-0.316,0-0.619-0.147-0.907-0.446
		c-0.251-0.409-0.567-0.614-0.949-0.614h-0.056c-0.419,0-0.734,0.219-0.949,0.656c-0.056,0.148-0.083,0.284-0.083,0.404
		c0,0.428,0.246,0.777,0.739,1.047c1.805,1.2,2.814,1.884,3.028,2.052c0.335,0.288,0.572,0.525,0.712,0.712
		c0.604,0.828,0.907,1.693,0.907,2.596c0,1.46-0.592,2.651-1.772,3.572c-0.791,0.559-1.656,0.837-2.596,0.837
		c-0.894,0-1.74-0.278-2.54-0.837c-0.521-0.399-0.907-0.818-1.158-1.256c-0.251-0.428-0.377-0.781-0.377-1.061v-0.028
		c0-0.354,0.172-0.67,0.517-0.949c0.232-0.139,0.455-0.209,0.67-0.209c0.446,0,0.8,0.205,1.061,0.614
		c0.13,0.261,0.251,0.466,0.362,0.614c0.428,0.466,0.922,0.697,1.479,0.697c0.623,0,1.145-0.256,1.563-0.768
		c0.251-0.362,0.377-0.753,0.377-1.172c0-0.754-0.414-1.368-1.242-1.843c-1.74-1.162-2.685-1.8-2.833-1.911
		c-0.875-0.734-1.312-1.655-1.312-2.764c0-0.865,0.33-1.661,0.991-2.387C78.503,26.07,79.341,25.722,80.289,25.722z"/>
	<path fill="#231F20" d="M93.659,25.722h0.237c1.47,0,2.897,0.502,4.284,1.507c0.633,0.53,1.074,0.986,1.326,1.367
		c0.948,1.304,1.423,2.731,1.423,4.285c0,1.879-0.684,3.554-2.051,5.023c-0.735,0.698-1.434,1.182-2.094,1.452
		c-0.996,0.446-1.959,0.669-2.889,0.669h-0.237c-1.489,0-2.922-0.507-4.299-1.521c-0.512-0.419-0.912-0.823-1.2-1.214
		c-1.023-1.321-1.535-2.796-1.535-4.425c0-1.767,0.614-3.363,1.843-4.786c0.633-0.643,1.088-1.033,1.367-1.173
		C91.082,26.117,92.356,25.722,93.659,25.722z M89.054,32.881v0.098c0,1.2,0.475,2.303,1.424,3.308
		c0.985,0.874,2.056,1.312,3.209,1.312h0.182c1.284,0,2.434-0.521,3.447-1.563c0.79-0.957,1.187-1.976,1.187-3.056v-0.098
		c0-1.331-0.488-2.479-1.466-3.447c-0.539-0.483-1.094-0.823-1.66-1.019c-0.54-0.177-1.028-0.266-1.466-0.266h-0.265
		c-0.782,0-1.582,0.243-2.4,0.726c-0.279,0.168-0.629,0.466-1.047,0.894c-0.494,0.623-0.801,1.178-0.921,1.66
		C89.128,31.829,89.054,32.313,89.054,32.881z"/>
	<path fill="#231F20" d="M104.195,25.735c0.4,0,0.735,0.182,1.005,0.544c0.158,0.251,0.358,0.377,0.601,0.377
		c0.103,0,0.32-0.092,0.655-0.279c0.884-0.427,1.791-0.642,2.722-0.642c1.842,0,3.419,0.717,4.731,2.149
		c0.474,0.605,0.79,1.111,0.948,1.521c0.372,0.735,0.559,1.703,0.559,2.903v6.308c0,0.567-0.158,0.949-0.475,1.145
		c-0.214,0.177-0.466,0.265-0.754,0.265c-0.307,0-0.595-0.13-0.865-0.391c-0.214-0.203-0.32-0.544-0.32-1.019v-6.252
		c0-0.894-0.117-1.558-0.35-1.996c-0.446-0.948-1.177-1.618-2.19-2.01c-0.447-0.139-0.865-0.209-1.256-0.209
		c-1.099,0-2.047,0.428-2.848,1.284c-0.438,0.502-0.726,1.094-0.865,1.772c-0.056,0.242-0.083,0.628-0.083,1.158v6.252
		c0,0.567-0.159,0.949-0.475,1.145c-0.205,0.177-0.456,0.265-0.754,0.265c-0.307,0-0.596-0.13-0.865-0.391
		c-0.215-0.203-0.321-0.544-0.321-1.019V27.145c0-0.482,0.116-0.828,0.35-1.032C103.604,25.86,103.889,25.735,104.195,25.735z"/>
</g>
<g>
	<path fill="#231F20" d="M34.811,23.178c0.368,1.46,0.892,3.563,1.571,6.312c0.009,0.02,0.405,1.586,1.187,4.703
		c0.121,0.251,0.279,0.377,0.474,0.377h0.112c0.251,0,0.484-0.273,0.698-0.823c1.656-3.284,2.498-4.94,2.526-4.969
		c0.261-0.298,0.559-0.446,0.894-0.446c0.558,0,0.977,0.377,1.256,1.13l2.47,4.913c0.14,0.131,0.27,0.195,0.391,0.195H46.5
		c0.316,0,0.521-0.33,0.614-0.991l3.252-12.839c0.13-0.26,0.307-0.452,0.53-0.572c0.083-0.047,0.242-0.088,0.475-0.126
		c0.567,0,0.949,0.293,1.144,0.879c0.019,0.121,0.033,0.196,0.042,0.223c0,0.188-0.289,1.388-0.865,3.601
		c-1.135,4.569-2.349,9.42-3.643,14.556c-0.232,0.484-0.591,0.726-1.074,0.726c-0.559,0-0.986-0.391-1.284-1.172
		c-1.972-3.936-2.973-5.917-3-5.945c-0.14-0.12-0.26-0.182-0.363-0.182h-0.112c-0.251,0-0.474,0.261-0.67,0.782l-3.014,5.973
		c-0.242,0.363-0.577,0.544-1.005,0.544c-0.493,0-0.847-0.273-1.061-0.823c-1.095-4.353-2.146-8.553-3.151-12.602"/>
</g>
<path fill="#231F20" d="M35.186,22.315c0.567-1.237,0.851-1.958,0.851-2.163v-0.07c0-0.224-0.172-0.712-0.516-1.465
	c-3.173-7.285-4.792-11.016-4.856-11.193c-0.065-0.14-0.098-0.279-0.098-0.418V6.908c0-0.456,0.251-0.819,0.753-1.089
	c0.223-0.056,0.377-0.083,0.46-0.083c0.605,0,1.047,0.41,1.326,1.228c2.493,5.769,3.787,8.746,3.88,8.932
	c0.148,0.167,0.312,0.251,0.488,0.251c0.326,0,0.559-0.242,0.698-0.726l3.936-9.029c0.27-0.437,0.633-0.656,1.089-0.656
	c0.511,0,0.893,0.284,1.144,0.851c0.037,0.14,0.056,0.247,0.056,0.321v0.098c0,0.195-0.195,0.703-0.586,1.521
	c-4.438,10.253-6.741,15.546-6.908,15.881c-0.363,0.624-0.926,1.065-1.689,1.326 M35.292,24.239"/>
<path fill="#231F20" d="M24.292,21.312 M38.911,19.832c-3.171,7.285-4.799,11.013-4.884,11.181c-0.058,0.143-0.138,0.262-0.24,0.356
	l-0.071,0.067c-0.333,0.311-0.771,0.373-1.311,0.189c-0.193-0.126-0.318-0.219-0.375-0.28c-0.412-0.442-0.414-1.045-0.004-1.807
	c2.523-5.755,3.821-8.731,3.895-8.925 M44.223,18.453"/>
<path fill="#231F20" d="M35.27,28.133c-3.17,7.285-4.798,11.013-4.884,11.18c-0.058,0.143-0.138,0.262-0.24,0.357l-0.072,0.066
	c-0.333,0.311-0.77,0.373-1.31,0.189c-0.193-0.125-0.318-0.219-0.375-0.28c-0.412-0.442-0.413-1.045-0.004-1.807
	c2.524-5.755,3.666-8.329,3.739-8.524L35.27,28.133z"/>
<path fill="#231F20" d="M26.077,17.21 M40.695,15.73c-3.17,7.286-4.799,11.013-4.884,11.18c-0.058,0.144-0.138,0.263-0.24,0.357
	l-0.072,0.066c-0.333,0.311-0.77,0.374-1.31,0.189c-0.193-0.124-0.317-0.218-0.375-0.279c-0.412-0.443-0.413-1.045-0.004-1.808
	c2.524-5.755,3.822-8.73,3.895-8.924 M46.007,14.351"/>
<path fill="#EDCD2E" d="M48.478,6.35h0.083c0.549,0,0.982,0.274,1.298,0.823c0.102,0.195,0.153,0.405,0.153,0.628v0.14
	c0,0.53-0.284,0.958-0.852,1.284c-0.205,0.093-0.418,0.14-0.642,0.14c-0.633,0-1.098-0.316-1.396-0.949
	c-0.065-0.167-0.098-0.326-0.098-0.475V7.815c0-0.633,0.334-1.093,1.004-1.382C48.199,6.378,48.347,6.35,48.478,6.35z"/>
<path fill="#468C25" d="M46.956,9.893h0.084c0.549,0,0.981,0.274,1.298,0.823c0.102,0.195,0.153,0.405,0.153,0.628v0.14
	c0,0.53-0.284,0.958-0.851,1.284c-0.205,0.093-0.419,0.14-0.642,0.14c-0.633,0-1.098-0.316-1.396-0.949
	c-0.065-0.167-0.098-0.326-0.098-0.475v-0.125c0-0.633,0.335-1.093,1.004-1.381C46.677,9.921,46.826,9.893,46.956,9.893z"/>
<path fill="#235384" d="M45.417,13.437h0.084c0.549,0,0.981,0.274,1.298,0.823c0.102,0.196,0.153,0.405,0.153,0.628v0.139
	c0,0.53-0.284,0.958-0.851,1.284c-0.205,0.093-0.419,0.14-0.642,0.14c-0.633,0-1.098-0.316-1.396-0.949
	c-0.065-0.167-0.098-0.326-0.098-0.475v-0.125c0-0.633,0.335-1.093,1.005-1.381C45.138,13.465,45.287,13.437,45.417,13.437z"/>
<path fill="#750704" d="M43.877,16.998h0.083c0.549,0,0.981,0.274,1.298,0.823c0.103,0.196,0.154,0.405,0.154,0.628v0.139
	c0,0.53-0.284,0.958-0.852,1.284c-0.205,0.093-0.418,0.14-0.642,0.14c-0.632,0-1.098-0.316-1.396-0.949
	c-0.065-0.167-0.098-0.326-0.098-0.475v-0.125c0-0.633,0.335-1.093,1.005-1.381C43.598,17.026,43.747,16.998,43.877,16.998z"/>
</svg>
