<svg xmlns="http://www.w3.org/2000/svg" width="115.416" height="40.028"><path fill="#231F20" d="M1.158 0h7.355c1.451 0 2.726.54 3.824 1.619.53.596.898 1.168 1.103 1.717.251.679.377 1.298.377 1.856 0 1.554-.577 2.889-1.731 4.005a.594.594 0 00-.139.363c0 .298.214.54.642.726a5.38 5.38 0 012.08 2.582 5.68 5.68 0 01.349 1.912c0 .93-.275 1.856-.824 2.777a5.19 5.19 0 01-2.749 2.163 5.107 5.107 0 01-1.73.293H1.158c-.41 0-.753-.224-1.033-.67A1.317 1.317 0 010 18.854V1.158C0 .749.223.405.67.125.865.042 1.028 0 1.158 0zm1.257 3.098v5.024c0 .456.228.684.684.684h5.638c.27 0 .688-.163 1.256-.488.512-.391.837-.735.977-1.033.316-.511.475-1.037.475-1.577v-.195c0-.717-.27-1.4-.81-2.052-.457-.456-.815-.716-1.075-.781-.372-.177-.647-.265-.824-.265H3.098c-.456 0-.683.228-.683.683zm0 8.792v5.024c0 .456.246.684.739.684h6.783c.326-.019.753-.186 1.284-.502.949-.707 1.424-1.609 1.424-2.708 0-.949-.391-1.781-1.172-2.498-.577-.418-1.088-.642-1.535-.67h-6.84c-.456 0-.683.224-.683.67zM23.073 0c.465 0 .814.251 1.047.753.037.159.056.344.056.559v17.389c0 .614-.219 1.019-.656 1.214-.093.046-.242.079-.447.098-.465 0-.819-.251-1.061-.754a2.36 2.36 0 01-.056-.558V1.312c0-.614.224-1.014.67-1.2.084-.056.232-.093.447-.112zm4.468 0c.465 0 .814.251 1.047.753.037.159.056.344.056.559v17.389c0 .614-.219 1.019-.656 1.214-.093.046-.243.079-.447.098-.466 0-.819-.251-1.061-.754a2.36 2.36 0 01-.056-.558V1.312c0-.614.224-1.014.67-1.2.084-.056.232-.093.447-.112zm-9.327 6.35h.083c.475 0 .879.223 1.214.669.158.251.237.502.237.754v.153c0 .456-.224.847-.67 1.172-.27.167-.53.251-.782.251H18.2c-.456 0-.851-.214-1.186-.642a1.644 1.644 0 01-.265-.865c0-.316.111-.628.335-.935.325-.371.702-.557 1.13-.557zm-.027 10.676h.139c.484 0 .894.242 1.228.726.13.251.196.488.196.711v.112c0 .475-.229.875-.684 1.2a1.386 1.386 0 01-.74.237h-.139c-.475 0-.879-.233-1.214-.698-.149-.289-.223-.554-.223-.796 0-.325.111-.646.335-.963.343-.352.71-.529 1.102-.529zm38.21 8.723h3.601c1.117 0 2.149.391 3.098 1.173.475.455.781.818.921 1.088.483.801.727 1.628.727 2.484v8.359c0 .382-.187.712-.559.991a1.33 1.33 0 01-.628.181c-.521 0-.898-.245-1.131-.739-.121-.335-.33-.502-.628-.502-.131 0-.409.135-.837.404a7.39 7.39 0 01-1.242.517c-.754.215-1.419.32-1.996.32h-.182c-1.247 0-2.363-.479-3.35-1.437-.418-.475-.698-.865-.837-1.173-.335-.706-.502-1.386-.502-2.037v-.154c0-1.219.47-2.33 1.409-3.335 1.005-.894 2.084-1.34 3.238-1.34h3.95c.344 0 .562-.088.656-.265a.482.482 0 00.111-.308v-.056c-.028-.27-.2-.595-.517-.977-.344-.335-.637-.539-.879-.614-.232-.12-.651-.182-1.256-.182h-3.168c-.326 0-.623-.153-.893-.46-.167-.232-.251-.456-.251-.67v-.098c0-.392.177-.717.53-.978.215-.127.42-.192.615-.192zm-1.144 9.546c0 .642.27 1.224.809 1.744.484.383.958.572 1.424.572h.237c.79 0 1.595-.245 2.414-.739.912-.577 1.563-1.41 1.954-2.498.084-.326.145-.586.182-.782v-.069c0-.231-.135-.413-.404-.544a1.255 1.255 0 00-.154-.015h-4.228c-.559 0-1.093.247-1.605.74-.42.494-.629 1.025-.629 1.591zm13.342-15.282h.111c.399 0 .734.209 1.005.628.103.159.153.424.153.795v3.698c0 .299.168.494.503.587h3.056c.019 0 .028.009.028.027v1.87a.712.712 0 01-.279.433c-.111.065-.274.098-.488.098h-1.591c-.512 0-.889.232-1.131.698a1.232 1.232 0 00-.098.418v7.229c0 .4.229.735.684 1.005.177.065.316.098.419.098h.963c.028 0 .042.009.042.027v2.373c0 .02-.014.027-.042.027h-1.145c-.79 0-1.391-.13-1.8-.391-.623-.315-1.089-.884-1.396-1.702-.103-.298-.153-.734-.153-1.312V21.437c0-.558.153-.939.46-1.144a1.04 1.04 0 01.699-.28zm11.694 5.709c.605 0 1.209.177 1.814.53.856.586 1.284 1.178 1.284 1.771 0 .419-.209.764-.628 1.033-.195.104-.4.153-.614.153-.316 0-.619-.147-.907-.446-.251-.409-.567-.614-.949-.614h-.056c-.419 0-.734.219-.949.656a1.156 1.156 0 00-.083.404c0 .428.246.777.739 1.047 1.805 1.2 2.814 1.884 3.028 2.052.335.288.572.525.712.712.604.828.907 1.693.907 2.596 0 1.46-.592 2.651-1.772 3.572a4.4 4.4 0 01-2.596.837c-.894 0-1.74-.278-2.54-.837-.521-.399-.907-.818-1.158-1.256-.251-.428-.377-.781-.377-1.061v-.028c0-.354.172-.67.517-.949.232-.139.455-.209.67-.209.446 0 .8.205 1.061.614.13.261.251.466.362.614.428.466.922.697 1.479.697.623 0 1.145-.256 1.563-.768.251-.362.377-.753.377-1.172 0-.754-.414-1.368-1.242-1.843-1.74-1.162-2.685-1.8-2.833-1.911-.875-.734-1.312-1.655-1.312-2.764 0-.865.33-1.661.991-2.387.726-.695 1.564-1.043 2.512-1.043zm13.37 0h.237c1.47 0 2.897.502 4.284 1.507.633.53 1.074.986 1.326 1.367.948 1.304 1.423 2.731 1.423 4.285 0 1.879-.684 3.554-2.051 5.023-.735.698-1.434 1.182-2.094 1.452-.996.446-1.959.669-2.889.669h-.237c-1.489 0-2.922-.507-4.299-1.521-.512-.419-.912-.823-1.2-1.214-1.023-1.321-1.535-2.796-1.535-4.425 0-1.767.614-3.363 1.843-4.786.633-.643 1.088-1.033 1.367-1.173 1.248-.789 2.522-1.184 3.825-1.184zm-4.605 7.159v.098c0 1.2.475 2.303 1.424 3.308.985.874 2.056 1.312 3.209 1.312h.182c1.284 0 2.434-.521 3.447-1.563.79-.957 1.187-1.976 1.187-3.056v-.098c0-1.331-.488-2.479-1.466-3.447-.539-.483-1.094-.823-1.66-1.019-.54-.177-1.028-.266-1.466-.266h-.265c-.782 0-1.582.243-2.4.726-.279.168-.629.466-1.047.894-.494.623-.801 1.178-.921 1.66-.15.399-.224.883-.224 1.451zm15.141-7.146c.4 0 .735.182 1.005.544.158.251.358.377.601.377.103 0 .32-.092.655-.279a6.193 6.193 0 012.722-.642c1.842 0 3.419.717 4.731 2.149.474.605.79 1.111.948 1.521.372.735.559 1.703.559 2.903v6.308c0 .567-.158.949-.475 1.145a1.147 1.147 0 01-.754.265c-.307 0-.595-.13-.865-.391-.214-.203-.32-.544-.32-1.019v-6.252c0-.894-.117-1.558-.35-1.996-.446-.948-1.177-1.618-2.19-2.01a4.24 4.24 0 00-1.256-.209c-1.099 0-2.047.428-2.848 1.284a3.811 3.811 0 00-.865 1.772c-.056.242-.083.628-.083 1.158v6.252c0 .567-.159.949-.475 1.145a1.113 1.113 0 01-.754.265c-.307 0-.596-.13-.865-.391-.215-.203-.321-.544-.321-1.019v-11.47c0-.482.116-.828.35-1.032.259-.253.544-.378.85-.378zm-69.384-2.557c.368 1.46.892 3.563 1.571 6.312.009.02.405 1.586 1.187 4.703.121.251.279.377.474.377h.112c.251 0 .484-.273.698-.823 1.656-3.284 2.498-4.94 2.526-4.969.261-.298.559-.446.894-.446.558 0 .977.377 1.256 1.13l2.47 4.913c.14.131.27.195.391.195h.11c.316 0 .521-.33.614-.991l3.252-12.839c.13-.26.307-.452.53-.572.083-.047.242-.088.475-.126.567 0 .949.293 1.144.879.019.121.033.196.042.223 0 .188-.289 1.388-.865 3.601a4521.85 4521.85 0 01-3.643 14.556c-.232.484-.591.726-1.074.726-.559 0-.986-.391-1.284-1.172-1.972-3.936-2.973-5.917-3-5.945-.14-.12-.26-.182-.363-.182h-.112c-.251 0-.474.261-.67.782l-3.014 5.973c-.242.363-.577.544-1.005.544-.493 0-.847-.273-1.061-.823a4143.473 4143.473 0 01-3.151-12.602"/><path fill="#231F20" d="M35.186 22.315c.567-1.237.851-1.958.851-2.163v-.07c0-.224-.172-.712-.516-1.465-3.173-7.285-4.792-11.016-4.856-11.193a.986.986 0 01-.098-.418v-.098c0-.456.251-.819.753-1.089.223-.056.377-.083.46-.083.605 0 1.047.41 1.326 1.228 2.493 5.769 3.787 8.746 3.88 8.932.148.167.312.251.488.251.326 0 .559-.242.698-.726l3.936-9.029c.27-.437.633-.656 1.089-.656.511 0 .893.284 1.144.851.037.14.056.247.056.321v.098c0 .195-.195.703-.586 1.521-4.438 10.253-6.741 15.546-6.908 15.881-.363.624-.926 1.065-1.689 1.326m.078-1.495"/><path fill="#231F20" d="M38.911 19.832c-3.171 7.285-4.799 11.013-4.884 11.181a.973.973 0 01-.24.356l-.071.067c-.333.311-.771.373-1.311.189a2.36 2.36 0 01-.375-.28c-.412-.442-.414-1.045-.004-1.807 2.523-5.755 3.821-8.731 3.895-8.925m8.302-2.16"/><path fill="#231F20" d="M35.27 28.133c-3.17 7.285-4.798 11.013-4.884 11.18a.986.986 0 01-.24.357l-.072.066c-.333.311-.77.373-1.31.189a2.298 2.298 0 01-.375-.28c-.412-.442-.413-1.045-.004-1.807 2.524-5.755 3.666-8.329 3.739-8.524l3.146-1.181zm5.425-12.403c-3.17 7.286-4.799 11.013-4.884 11.18a.969.969 0 01-.24.357l-.072.066c-.333.311-.77.374-1.31.189a2.298 2.298 0 01-.375-.279c-.412-.443-.413-1.045-.004-1.808 2.524-5.755 3.822-8.73 3.895-8.924m8.302-2.16"/><path fill="#EDCD2E" d="M48.478 6.35h.083c.549 0 .982.274 1.298.823.102.195.153.405.153.628v.14c0 .53-.284.958-.852 1.284-.205.093-.418.14-.642.14-.633 0-1.098-.316-1.396-.949a1.315 1.315 0 01-.098-.475v-.126c0-.633.334-1.093 1.004-1.382a1.49 1.49 0 01.45-.083z"/><path fill="#468C25" d="M46.956 9.893h.084c.549 0 .981.274 1.298.823.102.195.153.405.153.628v.14c0 .53-.284.958-.851 1.284-.205.093-.419.14-.642.14-.633 0-1.098-.316-1.396-.949a1.315 1.315 0 01-.098-.475v-.125c0-.633.335-1.093 1.004-1.381.169-.057.318-.085.448-.085z"/><path fill="#235384" d="M45.417 13.437h.084c.549 0 .981.274 1.298.823.102.196.153.405.153.628v.139c0 .53-.284.958-.851 1.284-.205.093-.419.14-.642.14-.633 0-1.098-.316-1.396-.949a1.315 1.315 0 01-.098-.475v-.125c0-.633.335-1.093 1.005-1.381.168-.056.317-.084.447-.084z"/><path fill="#750704" d="M43.877 16.998h.083c.549 0 .981.274 1.298.823.103.196.154.405.154.628v.139c0 .53-.284.958-.852 1.284-.205.093-.418.14-.642.14-.632 0-1.098-.316-1.396-.949a1.315 1.315 0 01-.098-.475v-.125c0-.633.335-1.093 1.005-1.381.169-.056.318-.084.448-.084z"/></svg>