<?xml version="1.0" standalone="no"?>
<!DOCTYPE svg PUBLIC "-//W3C//DTD SVG 20010904//EN"
 "http://www.w3.org/TR/2001/REC-SVG-20010904/DTD/svg10.dtd">
<svg version="1.0" xmlns="http://www.w3.org/2000/svg"
 width="260.000000pt" height="260.000000pt" viewBox="0 0 260.000000 260.000000"
 preserveAspectRatio="xMidYMid meet">
<metadata>
Created by potrace 1.11, written by Peter Selinger 2001-2013
</metadata>
<g transform="translate(0.000000,260.000000) scale(0.100000,-0.100000)"
fill="#000000" stroke="none">
<path d="M2361 2578 c-1 -21 3 -26 15 -21 9 3 11 9 6 12 -5 3 -12 13 -15 21
-3 9 -6 4 -6 -12z"/>
<path d="M1865 2582 c-20 -20 26 -31 54 -13 9 6 4 10 -18 13 -17 3 -33 2 -36
0z"/>
<path d="M2220 2579 c0 -5 4 -8 9 -4 5 3 12 1 16 -5 3 -5 11 -10 17 -10 7 0 6
6 -2 15 -14 17 -40 20 -40 4z"/>
<path d="M1720 2548 c-36 -10 -82 -20 -104 -24 -55 -8 -204 -52 -235 -69 -26
-15 -26 -15 14 -9 22 3 103 23 180 44 77 21 153 41 169 44 28 5 54 22 45 29
-2 2 -33 -5 -69 -15z"/>
<path d="M2294 2556 c4 -13 0 -23 -14 -33 -12 -8 -19 -21 -16 -28 3 -8 -5 -16
-20 -19 -13 -4 -24 -11 -24 -16 0 -5 8 -7 18 -4 14 5 14 3 -2 -10 -11 -9 -34
-16 -52 -16 -18 0 -35 -4 -39 -10 -3 -5 -11 -7 -18 -5 -7 2 -34 6 -62 9 -27 3
-71 10 -97 14 -61 12 -123 5 -168 -17 -19 -10 -67 -22 -105 -26 -39 -4 -79
-10 -90 -12 -11 -3 -81 -7 -155 -8 -131 -2 -135 -3 -134 -24 0 -15 -6 -21 -23
-22 -63 -4 -85 -1 -78 10 3 6 13 8 23 6 10 -1 29 3 42 11 24 13 23 13 -25 14
-56 2 -100 15 -75 23 8 2 44 11 79 18 69 15 95 39 42 39 -17 0 -31 -5 -31 -11
0 -5 -4 -8 -9 -5 -5 3 -24 0 -42 -8 -39 -16 -96 -24 -224 -31 -108 -6 -147
-14 -139 -26 3 -5 2 -9 -3 -9 -70 -5 -119 -13 -130 -22 -7 -6 -16 -8 -20 -4
-3 3 -1 6 5 6 7 0 12 4 12 8 0 4 -19 7 -42 5 -24 -1 -77 7 -118 17 -115 29
-180 36 -180 17 0 -21 -58 -42 -115 -41 -37 1 -53 -3 -62 -16 -9 -13 -22 -17
-41 -14 -45 7 -60 -18 -37 -60 18 -32 18 -36 0 -97 -9 -36 -19 -107 -20 -162
-2 -58 -8 -104 -15 -112 -7 -8 -10 -15 -7 -15 15 0 -18 -63 -37 -70 -15 -6
-17 -9 -5 -9 21 -1 33 -30 19 -46 -7 -9 -6 -16 4 -24 21 -17 26 -60 9 -70 -13
-7 -13 -9 1 -14 13 -5 15 -20 12 -89 -3 -46 -9 -95 -15 -111 -11 -27 -6 -32
26 -28 14 2 17 -47 7 -87 -5 -18 -9 -20 -20 -11 -8 7 -18 9 -21 5 -4 -4 -1
-11 6 -15 7 -5 10 -14 7 -20 -4 -6 -3 -11 3 -11 16 0 10 -109 -7 -127 -11 -11
-12 -17 -3 -22 13 -9 24 -51 12 -51 -5 0 -7 -22 -5 -49 3 -37 0 -54 -13 -66
-14 -14 -14 -18 -2 -26 12 -7 12 -9 0 -9 -11 0 -9 -4 5 -14 16 -13 17 -18 6
-36 -9 -16 -10 -35 -2 -87 6 -36 13 -70 16 -74 2 -4 0 -10 -6 -14 -20 -12 -10
-26 10 -15 17 9 20 8 21 -12 0 -13 2 -34 5 -48 7 -49 6 -88 -5 -107 -6 -11 -8
-23 -4 -26 3 -3 1 -19 -5 -36 -8 -24 -8 -31 5 -35 8 -4 13 -13 10 -20 -3 -8
-1 -17 6 -20 9 -3 9 -5 0 -5 -7 -1 -13 -5 -13 -11 0 -5 13 -7 29 -4 36 7 52
-13 26 -33 -18 -12 -18 -13 3 -13 12 0 22 -6 22 -13 0 -9 12 -11 38 -9 30 3
45 -2 67 -21 27 -23 28 -25 12 -41 -18 -19 -23 -31 -8 -21 5 3 11 -3 14 -12 3
-14 6 -11 11 9 5 18 15 28 27 28 19 0 122 -52 149 -75 28 -24 64 -28 235 -31
216 -3 207 -2 200 -14 -4 -6 5 -10 19 -10 18 0 26 5 26 17 0 13 3 14 12 5 7
-7 21 -12 33 -12 16 0 17 2 5 10 -17 11 -22 9 95 36 95 23 120 21 158 -7 28
-21 30 -21 95 -4 37 9 78 19 92 21 14 3 33 7 43 10 12 4 17 0 17 -12 0 -14 3
-15 12 -6 8 8 8 15 0 24 -8 11 -6 17 11 28 20 12 21 12 8 -3 -12 -15 -11 -17
5 -17 11 0 31 6 45 14 18 9 32 10 43 4 10 -5 25 -7 34 -3 15 6 15 8 -3 21 -16
12 -17 16 -6 23 7 5 22 6 32 4 15 -4 17 -9 9 -18 -6 -7 -7 -16 -3 -18 11 -7
35 7 33 19 -1 5 13 13 30 18 24 7 34 6 40 -4 11 -18 41 -22 57 -8 10 8 13 5
13 -11 0 -19 3 -20 21 -10 12 6 42 9 73 5 172 -19 186 -19 203 -5 9 8 14 9 10
2 -10 -16 32 -28 46 -14 8 8 7 19 -6 40 -16 28 -16 30 0 39 10 6 26 6 40 1 13
-5 24 -5 24 -1 1 4 2 12 4 17 1 6 3 17 4 25 1 12 3 12 10 2 11 -18 41 13 66
68 l18 40 18 -22 c11 -11 19 -25 19 -30 0 -4 4 -8 9 -8 5 0 10 21 10 48 2 39
6 81 10 101 1 2 7 -2 14 -8 21 -17 26 -3 20 48 -4 35 -1 51 10 63 11 11 13 18
5 26 -6 6 -12 21 -13 34 -1 13 -3 32 -5 43 -1 11 -4 15 -7 7 -6 -15 -23 -6
-18 11 2 7 6 24 9 40 4 15 13 27 21 27 9 0 18 13 21 30 4 16 11 27 16 24 5 -3
6 5 2 20 -3 14 -2 26 3 26 12 0 11 33 -4 85 -6 22 -14 74 -17 115 -3 41 -8 86
-11 99 -2 14 0 30 6 37 7 9 7 19 -1 34 -9 16 -8 25 1 36 9 11 8 14 -4 14 -14
0 -31 44 -26 66 1 5 -1 17 -5 26 -4 9 -4 25 1 35 5 10 8 63 6 118 -2 55 -3
107 -3 115 0 8 0 37 0 64 0 26 -4 56 -9 65 -11 21 -21 102 -12 97 3 -2 5 12 5
32 -1 20 2 45 7 55 6 9 7 23 2 30 -5 8 -10 4 -14 -13 -4 -14 -5 -1 -2 29 5 42
3 52 -7 46 -9 -6 -10 -2 -5 16 14 45 21 40 41 -28 l14 -48 -5 52 c-3 29 -14
76 -26 104 -11 29 -19 63 -17 77 2 18 -3 27 -19 33 -18 6 -23 5 -23 -7 0 -13
-3 -13 -17 2 -13 13 -14 19 -5 22 19 6 14 20 -18 52 -32 31 -44 31 -90 -1 -14
-10 -35 -20 -47 -24 -19 -5 -23 -3 -23 18 0 31 21 49 52 43 14 -2 31 0 39 4
11 7 9 14 -9 33 -23 24 -23 25 -6 61 15 30 16 38 4 49 -10 10 -12 9 -6 -7z
m-514 -176 c0 -5 -7 -10 -15 -10 -8 0 -15 5 -15 10 0 6 7 10 15 10 8 0 15 -4
15 -10z m380 0 c0 -5 -10 -10 -21 -10 -18 0 -19 -2 -9 -15 8 -9 9 -15 2 -15
-6 0 -13 4 -16 9 -3 4 -18 6 -32 3 -20 -3 -25 -2 -19 7 4 7 13 10 21 7 8 -3
17 1 20 9 7 17 54 21 54 5z m-475 -10 c3 -5 1 -10 -4 -10 -6 0 -11 5 -11 10 0
6 2 10 4 10 3 0 8 -4 11 -10z m685 -10 c0 -25 -35 -43 -67 -35 -28 7 -24 17
10 22 12 2 26 10 32 18 14 21 25 19 25 -5z m-1415 -10 c-3 -5 -13 -10 -21 -10
-8 0 -12 5 -9 10 3 6 13 10 21 10 8 0 12 -4 9 -10z m-439 -19 c-6 -9 -46 -22
-46 -15 0 3 10 9 23 14 29 11 29 11 23 1z m1934 -63 c0 -11 -12 -10 -30 2 -12
7 -10 9 8 7 12 0 22 -5 22 -9z m8 -74 c7 -14 8 -23 2 -19 -15 9 -32 45 -22 45
5 0 14 -12 20 -26z m-893 -139 c186 -31 313 -110 375 -231 22 -42 25 -62 25
-144 -1 -84 -4 -101 -28 -148 -36 -70 -95 -125 -170 -160 l-60 -29 44 -11 c25
-6 72 -29 105 -50 193 -125 223 -425 57 -589 -59 -59 -147 -107 -250 -135 -73
-20 -105 -22 -540 -26 l-463 -4 0 771 0 771 413 0 c295 -1 435 -5 492 -15z
m942 -1127 c-3 -8 -6 -5 -6 6 -1 11 2 17 5 13 3 -3 4 -12 1 -19z m-652 -668
c-3 -5 -11 -10 -16 -10 -6 0 -7 5 -4 10 3 6 11 10 16 10 6 0 7 -4 4 -10z m87
-12 c-9 -9 -15 -9 -24 0 -9 9 -7 12 12 12 19 0 21 -3 12 -12z m-392 -8 c0 -5
-5 -10 -11 -10 -5 0 -7 5 -4 10 3 6 8 10 11 10 2 0 4 -4 4 -10z m-100 -15 c0
-8 -4 -15 -10 -15 -5 0 -10 7 -10 15 0 8 5 15 10 15 6 0 10 -7 10 -15z m-55
-25 c-3 -5 -1 -10 4 -10 6 0 11 -5 11 -10 0 -6 -22 -10 -50 -9 -55 2 -55 12 0
27 19 6 36 11 38 11 2 1 0 -3 -3 -9z m114 -4 c-2 -2 -24 -6 -49 -9 -30 -4 -38
-3 -25 3 19 8 83 14 74 6z"/>
<path d="M1070 1611 l0 -151 183 0 c170 0 186 2 227 23 99 51 109 184 18 249
-31 22 -42 23 -230 26 l-198 4 0 -151z"/>
<path d="M1238 1162 l-168 -2 0 -161 0 -160 191 1 c204 2 251 10 297 53 37 34
50 68 47 118 -3 59 -15 79 -62 112 -52 35 -109 42 -305 39z"/>
<path d="M913 2524 c-34 -15 -44 -34 -18 -34 8 0 15 -4 15 -10 0 -5 -5 -10
-11 -10 -5 0 -7 -4 -4 -10 8 -12 16 -12 34 -1 10 6 11 13 3 27 -8 14 -6 21 6
30 26 19 11 23 -25 8z"/>
<path d="M779 2495 c-56 -14 -110 -21 -155 -19 -187 7 -262 5 -303 -8 -25 -7
-46 -18 -48 -24 -5 -15 68 -47 80 -35 7 7 5 12 -6 17 -28 10 -19 21 27 33 55
14 59 14 51 1 -4 -6 -10 -8 -15 -5 -5 3 -11 1 -15 -5 -6 -10 4 -12 135 -16
182 -7 212 -6 279 11 39 9 69 21 66 26 -3 4 -12 6 -20 2 -21 -7 -19 7 2 23 30
21 12 21 -78 -1z m26 -25 c-3 -5 -15 -10 -26 -10 -11 0 -17 5 -14 10 3 6 15
10 26 10 11 0 17 -4 14 -10z"/>
<path d="M1667 2492 c-7 -15 -1 -37 11 -36 6 1 23 2 37 3 14 0 25 6 25 12 0 5
-5 7 -10 4 -6 -4 -22 0 -35 9 -13 9 -26 12 -28 8z"/>
<path d="M981 2471 c-9 -16 -8 -18 9 -14 21 6 26 18 11 28 -6 3 -15 -3 -20
-14z"/>
<path d="M1470 2430 c0 -14 7 -20 21 -20 15 0 19 4 15 16 -3 9 -6 18 -6 20 0
2 -7 4 -15 4 -8 0 -15 -9 -15 -20z"/>
<path d="M2130 2440 c0 -5 4 -10 9 -10 6 0 13 5 16 10 3 6 -1 10 -9 10 -9 0
-16 -4 -16 -10z"/>
<path d="M2359 2427 c7 -7 14 -8 21 -1 6 6 2 10 -12 11 -16 2 -18 -1 -9 -10z"/>
<path d="M2412 2418 c-16 -16 -15 -28 3 -28 8 0 15 9 15 20 0 23 -2 24 -18 8z"/>
<path d="M1390 2402 c0 -5 14 -9 30 -10 17 0 30 4 30 9 0 5 -13 9 -30 9 -16 0
-30 -4 -30 -8z"/>
<path d="M72 1370 c0 -14 2 -19 5 -12 2 6 2 18 0 25 -3 6 -5 1 -5 -13z"/>
<path d="M2484 456 c-3 -8 -4 -23 -2 -33 3 -11 6 -6 9 15 6 34 2 42 -7 18z"/>
<path d="M1780 240 c0 -5 7 -10 15 -10 8 0 15 5 15 10 0 6 -7 10 -15 10 -8 0
-15 -4 -15 -10z"/>
<path d="M1225 140 c-7 -12 34 -30 53 -23 9 4 8 9 -5 19 -22 16 -40 18 -48 4z"/>
<path d="M1146 131 c-3 -5 1 -11 9 -15 15 -6 29 7 18 18 -9 9 -21 8 -27 -3z"/>
<path d="M1050 121 c0 -6 9 -9 20 -8 11 1 20 5 20 9 0 4 -9 8 -20 8 -11 0 -20
-4 -20 -9z"/>
</g>
</svg>
