<?xml version="1.0" encoding="utf-8"?>
<!-- Generator: Adobe Illustrator 15.0.0, SVG Export Plug-In . SVG Version: 6.00 Build 0)  -->
<!DOCTYPE svg PUBLIC "-//W3C//DTD SVG 1.1//EN" "http://www.w3.org/Graphics/SVG/1.1/DTD/svg11.dtd">
<svg version="1.1" id="Layer_1" xmlns="http://www.w3.org/2000/svg" xmlns:xlink="http://www.w3.org/1999/xlink" x="0px" y="0px"
	 width="494.822px" height="46.862px" viewBox="0 0 494.822 46.862" enable-background="new 0 0 494.822 46.862"
	 xml:space="preserve">
<g>
	<path fill="#175A8B" d="M11.602,29.834c1.467-0.258,2.731,0.572,3.537,0.028C14.385,29.772,11.041,29.392,11.602,29.834z"/>
	<path fill="#175A8B" d="M12.108,10.005c0.826,0.006,1.652,0.012,2.479,0.019C14.674,9.217,12.401,9.806,12.108,10.005z"/>
	<path fill="#175A8B" d="M4.725,4.169C3.534,4.285,1.439,3.897,0.829,4.331C2.022,4.222,4.114,4.607,4.725,4.169z"/>
	<path fill="#175A8B" d="M262.004,0c-5.155,0.981-14.009,1.679-19.463,0.234c-0.554,0.684,1.201,0.126,1.056,0.584
		c-3.716,0.149-6.935-0.088-9.908,0.12c3.829,0.936,8.022,0.038,9.893,1.809C251.687,2.322,256.793,2.269,262.004,0z"/>
	<path fill="#175A8B" d="M7.848,11.707c-1.327,0.215-3.784,0.307-3.538,0.356c3.149,0.562,8.053,0.814,10.612,0.275
		c-0.555-0.025-1.228,0.016-1.058-0.395c-2.87,0.076-4.096,0.517-6.725,0.142C7.57,12.068,7.978,12.033,7.848,11.707z"/>
	<path fill="#175A8B" d="M0,19.926c1.079-0.114,3.047,0.271,3.541-0.166C2.26,19.507,1.156,19.497,0,19.926z"/>
	<path fill="#175A8B" d="M261.278,2.688c0.399-0.551,0.752-1.128,1.426-1.525c-1.081-0.151-1.29,0.184-2.127,0.176
		C260.542,1.934,260.73,2.406,261.278,2.688z"/>
	<path fill="#175A8B" d="M282.469,7.668c-0.63-0.438-3.282-0.793-4.241-0.417C279.383,7.651,281.787,8.089,282.469,7.668z"/>
	<path fill="#175A8B" d="M21.528,27.602c-0.666-0.052,0.204-0.318-0.352-0.388c0.156,0.315-1.932,0.3-1.77-0.014
		c0.195,0.002,0.405-0.152,0.002-0.192c-0.109,0.519-1.49,0.334-1.775,0.757C19.767,27.689,20.75,27.803,21.528,27.602z"/>
	<path fill="#175A8B" d="M6.051,15.735c0.001-0.195,0.288-0.228,0.357-0.383c-0.646-0.203-4.116-0.034-3.543,0.359
		c0.454-0.004,0.493-0.244,1.063-0.185C4.417,16.215,11.339,15.777,6.051,15.735z"/>
	<path fill="#175A8B" d="M13.101,19.258c1.265,0.095,3.826,0.503,4.951,0.039C16.169,19.488,14.139,18.615,13.101,19.258z"/>
	<path fill="#175A8B" d="M23.717,18.953c-0.154-0.316-2.67-0.336-2.83-0.021C21.814,18.834,23.524,19.875,23.717,18.953z"/>
	<path fill="#175A8B" d="M92.845,2.735c-0.507-0.051-0.596-0.324-1.061-0.396c0.149,0.535-1.319,0.173-1.419,0.566
		C91.098,2.8,92.689,3.165,92.845,2.735z"/>
	<path fill="#175A8B" d="M12.395,18.866c-1.068,0.467-2.565-0.31-2.832,0.366C10.45,19.075,12.604,19.628,12.395,18.866z"/>
	<path fill="#175A8B" d="M25.127,19.733c0.139-0.207,0.428-0.458,0.001-0.19c-1.147,0.181-2.67-0.212-2.831-0.213
		C15.858,19.255,20.861,20.018,25.127,19.733z"/>
	<path fill="#175A8B" d="M14.089,28.698c-1.938,0.093-6.537-0.274-6.726,0.143C9.874,28.51,12.831,29.59,14.089,28.698z"/>
	<path fill="#175A8B" d="M41.859,6.575c-1.631,0.226-3.134-0.614-4.246-0.033C38.869,6.85,42.851,6.696,41.859,6.575z"/>
	<path fill="#175A8B" d="M2.565,8.584C4.477,8.195,5.419,8.9,6.816,8.23C5.533,8.423,2.715,7.76,2.565,8.584z"/>
	<path fill="#175A8B" d="M40.478,1.942c0.001-0.19,0.004-0.385,0.005-0.575c-0.875-0.037-1.715-0.051-1.772,0.371
		c0.488,0.012,0.779-0.086,1.065-0.185C39.812,1.79,39.877,2.01,40.478,1.942z"/>
	<path fill="#175A8B" d="M55.682,3.796c1.26-0.606,3.669,0.4,4.251-0.738c-4.88,0.139-12.087-0.948-16.627-0.516
		c4.153,0.694,9.188,0.696,13.084,1.066C56.117,3.649,55.691,3.607,55.682,3.796z"/>
	<path fill="#175A8B" d="M60.988,3.645c4.023-0.383,10.499,0.299,13.801-0.086c-3.603-0.254-10.916-0.766-14.503-0.304
		C61.317,3.208,61.501,3.31,60.988,3.645z"/>
	<path fill="#175A8B" d="M80.451,3.794c-0.082-0.296-0.582-0.033-0.709,0.188c1.417,0.011,2.83,0.021,4.248,0.033
		C84.76,3.65,81.4,3.873,80.451,3.794z"/>
	<path fill="#175A8B" d="M65.958,1.95c-1.1-0.575-3.706-0.273-5.306-0.042C62.639,1.684,64.854,2.338,65.958,1.95z"/>
	<path fill="#175A8B" d="M189.802,2.135c-1.567,0.102-3.391,0.055-4.602,0.353C186.995,2.515,188.822,2.559,189.802,2.135z"/>
	<path fill="#175A8B" d="M199.351,2.981c-1.12-0.051-2.798-0.794-3.893-0.225C195.665,3.483,198.729,3.601,199.351,2.981z"/>
	<path fill="#175A8B" d="M12.891,0.382c-1.826,0.015-4.42-0.568-6.014-0.046C8.818,0.437,11.802,0.95,12.891,0.382z"/>
	<path fill="#175A8B" d="M9.295,7.865c3.776-0.101,8.488,0.32,11.679-0.104c-2.004-0.016-4.01-0.031-6.016-0.047
		C13.182,7.828,10.485,7.431,9.295,7.865z"/>
	<path fill="#175A8B" d="M10.029,4.596c1.624,0.029,4.853,0.309,6.369,0.049C14.625,4.583,10.774,3.978,10.029,4.596z"/>
	<path fill="#175A8B" d="M26.276,8.188c-0.465-0.004-0.319-0.34-0.704-0.39c0.166,1.023-1.246-0.65-1.771,0.179
		C24.744,7.877,25.6,8.785,26.276,8.188z"/>
	<path fill="#175A8B" d="M191.572,2.149c3.84-0.191,7.664-0.391,10.976-0.875C198.635,1.423,194.704,1.564,191.572,2.149z"/>
	<path fill="#175A8B" d="M224.829,2.794c-3.187,0.103-7.308-0.313-9.911,0.113C219.111,3.191,221.989,3.23,224.829,2.794z"/>
	<path fill="#175A8B" d="M16.956,24.1c-1.227,0.142-1.492-0.224-2.121-0.4c-0.268,0.362-1.059,0.125-0.358,0.576
		c-0.417,0.025-1.005-0.045-1.064,0.181C13.671,24.611,17.256,24.229,16.956,24.1z"/>
	<path fill="#175A8B" d="M16.92,28.721c3.813-0.028,7.362-0.284,9.558-0.696C21.884,28.244,19.433,28.142,16.92,28.721z"/>
	<path fill="#175A8B" d="M281.612,26.725c-0.993-0.455-2.808,0.388-3.892-0.225c0.196,0.007,0.406-0.148,0.002-0.189
		C276.177,27.177,281.04,27.016,281.612,26.725z"/>
	<path fill="#175A8B" d="M61.522,17.992c0-1.512-1.116-2.412-2.952-2.375h-5.04v4.896h5.04
		C60.406,20.512,61.522,19.576,61.522,17.992z"/>
	<path fill="#175A8B" d="M181.544,15.905c-3.779,0-6.947,3.096-6.947,7.199c0,4.104,3.204,7.271,6.947,7.271
		c3.78,0,6.803-3.168,6.803-7.271C188.347,19,185.324,15.905,181.544,15.905z"/>
	<path fill="#175A8B" d="M58.57,25.3h-5.04v5.291h5.04c2.304,0,3.744-1.008,3.744-2.736C62.314,26.271,60.874,25.264,58.57,25.3z"/>
	<path fill="#175A8B" d="M279.147,24.975c-0.355-0.305-4.35-0.335-3.537-0.027C276.977,24.74,278.717,25.317,279.147,24.975z"/>
	<path fill="#175A8B" d="M26.967,10.508c-0.776-0.938-3.732,0.208-4.6-0.036C23.667,10.999,25.108,10.273,26.967,10.508z"/>
	<path fill="#175A8B" d="M18.105,12.363c4.267,0.13,4.576,0.125,7.79-0.326C22.233,11.972,20.396,11.586,18.105,12.363z"/>
	<path fill="#175A8B" d="M282.628,32.704c-1.09-0.476-5.094,0.553-6.013-0.432c-0.104-0.446,1.024-0.208,1.066-0.57
		c-1.014-0.037-2.764,0.515-3.537-0.028c2.248-0.207,5.113-0.548,7.433-0.328c-0.244-0.381-1.977,0.033-2.118-0.399
		c0.273-0.043,0.695,0,0.707-0.189c-1.482,0.019-0.851-0.107-0.351-0.387c-0.953,0.125-0.685-0.402-1.058-0.586
		c-1.609,0.336-3.64-0.209-3.17-1.566c-1.001-0.04-2.428,0.149-2.475-0.403c0.941,0.007,1.887,0.016,2.829,0.022
		c-0.002,0.193-0.003,0.384-0.004,0.577c0.737-0.107,2.32,0.256,2.479-0.175c-0.621-0.116-2.079,0.218-2.122-0.207
		c1.564-0.094,2.479,0.023,3.188-0.169c-0.414-0.037-0.382-0.31-0.352-0.579c-2.702,0.038-5.451,0.098-6.007-1.007
		c0.529-0.032,1.304,0.077,1.416-0.186c0.055-0.677-1.181-1.275-2.46-1.751c2.977-0.177,5.583,0.489,6.721-0.141
		c-2.189-0.814-4.514,0.031-6.363-0.434c1.251-0.689,6.383,0.335,7.434-0.519c-1.204-0.215,0.982-0.054,0.357-0.576
		c-1.3-0.116-1.561-0.812-2.82-1.367c0.063,0.418-0.294,0.607-1.065,0.567c-0.33-0.207-1.303-0.07-1.056-0.584
		c1.341-0.008,3.104-0.184,3.893-0.358c-0.659-0.287-2.346-0.027-2.827-0.406c1.473-0.016,0.074-0.128,0.004-0.387
		c1.595-0.143,3.047,0.792,3.891,0.417c-0.412-0.037-0.384-0.308-0.351-0.582c-0.358-0.385-2.522,0.388-3.183-0.215
		c0.344-0.194,0.704-0.385,1.063-0.572c0.798,0.1,2.648,0.615,3.185,0.217c-1.977-0.712-2.385-0.481-4.234-1.571
		c1.183-0.404,0.293-0.834,0.012-1.734c0.881,0.034,1.719,0.049,1.775-0.373c-1-0.04-2.43,0.149-2.476-0.403
		c0.145-1.604,2.413-0.072,3.188-0.362c-0.604-0.377-1.517-0.595-1.76-1.167c0.695,0.063,0.704-0.258,1.065-0.378
		c1.002-0.194,2.424,0.335,2.476,0.02c-0.524-0.168-0.509-0.625-0.699-0.968c-4.324,0.134-6.132-1.07-7.767-2.374
		c1.526-2.324,8.232-0.375,10.974-0.489c-2.645-0.569-5.368-1.095-8.482-1.416c1.26,0.029-0.262-1.119-0.347-0.964
		c0.042-0.078,0.126-0.118,0.226-0.136c-0.07-0.018-0.14-0.034-0.224-0.057c-1.044-0.275-1.283-1.391-0.698-1.16
		c-2.209-0.866-6.687-0.536-8.833-1.996c2.894-0.008,5.667-0.083,7.791-0.518c-2.854,0.033-7.058,0.341-9.199,0.123
		c1.424-0.306,3.409-0.301,4.249-0.932c-3.981,0.311-8.209,1.507-12.745,0.866c0.611,0.015,0.911-0.141,1.063-0.376
		c-20.607,0.233-40.042,1.421-60.514,0.877c-5.028-0.133-10.323-0.028-14.024-0.515c1.315-0.014,3.128,0.247,3.771-0.141
		c-1.228,0.107-3.228-0.22-4.077,0.094c-0.296-0.043-0.604-0.081-0.876-0.133c-14.029,0.372-27.43-0.358-40.335-0.891
		c0.103,0.381-0.48,0.378-0.712,0.572c0.66,0.033,1.184,0.136,1.415,0.395c-2.389,0.25-2.993-1.462-4.951-0.806
		c0.527,0.229,1.447,0.25,1.766,0.591c-1.576,0.485-3.469-0.125-3.542,0.55c7.885-0.221,12.124-0.053,20.517,0.737
		c-4.264,0.304-13.91-1.045-11.325,0.106c-0.93-0.011-2.351,0.087-1.412-0.397c-1.045,0.347-4.023-0.388-2.481,0.367
		c-2.867-0.915-14.59,0.406-13.788-1.266c-0.242,0.52-4.437-0.148-3.54,0.359c0.876-0.021,1.714-0.022,1.763,0.4
		c-7.094-0.28-13.483,0.596-22.646,0.018c0.866-0.101,1.296-0.441,1.776-0.758c-5.843,1.275-12.878,0.433-20.179,1.193
		c4.422,0.104,8.345,0.338,13.088,0.484c-5.398,0.042-16.544,0.682-19.106-0.34c-1.455-0.099,0.336,0.521-1.064,0.569
		c-0.891,0.076-1.639-0.89-2.119-0.402C65.429,4.808,53.686,4.997,45.41,5.064c1.017,0.496,0.612,0.201,1.771,0.013
		c0.011,0.266-0.171,0.42-0.359,0.574c1.314-0.18,0.927-0.404,2.478-0.171c-0.713,0.386-0.096,0.511,0.35,0.771
		c-1.745-0.121-4.057,0.452-4.606,0.35c1.494-0.042-0.188-0.831-0.35-0.388c-0.425,0.593-5.346,0.702-8.499,0.9
		c1.064,0.261,3.03,0.042,3.888,0.414c-0.006,0.253-0.622,0.172-0.708,0.378c1.748-0.168,0.187,0.754,1.765,0.207
		c-0.326,0.333-0.663,0.664-1.771,0.564c0.053-0.477-0.178-0.799-0.703-0.966c-0.571,0.025-0.442,0.355-1.771,0.37
		c-0.429,0.888,1.493-0.325,1.765,0.398c-0.869,0.247,0.386,0.72-0.359,0.768c-2.158-0.25-2.718-0.422-4.956,0.155
		c0.444-0.621-1.142-0.157-0.701-0.777c-3.979,0.89-13.497-0.491-14.513,0.466c-1.462-0.191-0.299-0.591-1.761-0.785
		c-0.404,1.099-0.494-0.4-1.415-0.206c-0.922,0.579-0.709,0.524-0.714,0.959c-0.354-0.003-0.709-0.005-1.062-0.008
		c-0.013-0.265,0.17-0.419,0.356-0.575c-2.592,0.11-6.375-0.44-7.433,0.521c0.271,0.3,4.082,0.33,3.184,0.025
		C8.558,8.898,6.825,9.312,7.167,8.62c1.773,0.136,4.477-0.22,5.658,0.234c0.157,0.538-1.925-0.168-1.77,0.374
		c7.771,0.391,14.637,0.46,21.223,0.738c-0.431-0.021-0.837-0.061-0.703-0.389c2.268,0.22,2.856,0.501,3.533,0.797
		c0.663-0.038-0.199-0.316,0.357-0.383c0.542,0.445,0.733,0.374,1.766,0.208c-0.053,0.228-0.635,0.434-0.005,0.578
		c0.927-1.203,4.319-0.014,4.954,0.038c-2.073-0.182-4.341,0.992-5.309,0.152c-4.451,0.828-6.824,0.584-10.627,1.458
		c-0.846,0.111-2.562-0.263-2.831,0.169c1.061,0.008,2.123,0.017,3.184,0.025c0.488,0.013,0.778-0.086,1.062-0.184
		c0.318,0.342,1.301,0.329,1.41,0.779c-1.188,0.168-0.312,0.428-0.006,0.771c-0.609-0.051-2.099,0.349-1.064,0.572
		c0.051-0.498,1.572,0.777,2.122,0.017c-0.416-0.036-1.004,0.025-1.061-0.203c2.453,0.328,5.287-0.636,6.015,0.431
		c-1.403,0.061-2.16-0.47-2.834,0.171c0.418,0.033,1.006-0.025,1.06,0.202c-2.683,0.145-8.75-0.473-10.261-0.08
		c-0.447-0.485,0.185-0.603-0.348-0.773c-4.476,0.756-10.559-0.215-14.866,0.462c10.357,0.291,14.79,0.4,22.64,1.139
		c-4.897,0.775-12.339-0.452-19.819,0.232c5.654,0.43,10.427,0.086,14.503,0.689c-0.275,0.041-0.698,0.001-0.709,0.185
		c1.175,0.071,2.176,0.049,2.48-0.365c0.42,0.382,2.939,0.945,1.416,0.205c3.054,0.194,4.899,0.802,7.423,0.826
		c-4.587,0.46-6.754,0.285-10.973,0.494c1.003,0.288,4.321,0.771,4.243,0.228c0.567,0.565,1.827-0.295,2.124,0.209
		c-2.085,0.726-4.477-0.205-6.02,0.53c1.227,0.603,3.367-0.439,3.888,0.416c-1.694-0.418-3.708,0.473-5.313,0.729
		c1.561,0.004,3.042,0.164,3.538,0.22c-1.376,0.405-3.311-0.177-4.958,0.346c0.743,0.4,3.053-0.451,2.826,0.793
		c-0.708-0.086-2.621-0.498-3.185-0.025c1.421-0.028,1.583,0.062,0.704,0.39c1.68-0.071,0.982-0.205,1.415,0.203
		c1.139-0.483,5.682-0.656,7.076,0.247c-2.697-0.294-3.613-0.163-6.373,0.338c1.81,0.183,2.907-0.049,5.306,0.041
		c-0.001,0.193-0.003,0.384-0.004,0.579c1.137,0.178,0.491-0.634,1.421-0.568c-0.49,0.772,0.628,0.686,1.054,0.971
		c-2.599-0.318-2.333,0.154-4.958,0.346c1.614,0.084,1.46,0.253,2.829,0.405c-1.854,0.422,0.969-0.281,1.06,0.204
		c-1.438,0.496-6.216,0.161-6.023,0.919c0.008-0.255,0.983-0.24,1.062,0.008c-0.78,0.273-2.635-0.046-2.836,0.552
		c1.479,0.547,1.486-0.738,3.539,0.027c-0.722-0.113-2.656,0.039-1.418,0.374c0.727-0.312,3.876-0.288,4.601,0.036
		c-2.683,0.554-6.691-0.169-8.502,1.091c2.668,0.108,6.139-0.211,7.782,0.443c-0.218,0.33-1.679-0.023-1.772,0.374
		c0.604,0.903,2.885-0.273,3.534,0.606c-2.356,0.09-3.14-0.125-4.25,0.542c1.57,0.002,4.437-0.385,7.076,0.056
		c-1.749,0.094,0.366,0.102,0.354,0.388c-2.083,0.545-3.416-0.072-6.021,0.335c1.444,0.131,3.854-0.051,2.473,0.601
		c0.836-0.128,3.167-0.419,3.892,0.031c-0.38,0.255-2.917,0.298-2.127,0.559c1.332-0.136,2.545-0.214,3.538,0.027
		c-1.457-0.097-1.106,0.807-2.835,0.557c0-0.191,0.289-0.227,0.356-0.38c-0.974,0.976-3.492-0.603-2.48,0.557
		c-3.255-0.126-6.303-1.038-8.139-0.06c2.16-0.122,3.784-0.204,5.657,0.425c-0.372,0.198-3.034,0.099-2.126,0.37
		c2.911-0.216,4.594,0.231,5.655,1.01c1.012-0.46,3.492,0.188,6.016-0.152c-0.02,0.249-0.456,0.264-0.357,0.576
		c1.932-0.009,3.771,0.028,4.95,0.426c-0.962,0.109-2.805-0.266-3.187,0.169c1.6-0.043,2.059,0.545,3.532,0.988
		c-1.368,0.11-6.13-0.361-4.247,0.354c-2.724-0.174-5.56,0.363-5.662-0.239c-1.508,0.625-6.488,0.368-7.436,0.521
		c-2.199,0.353,1.161,0.234,0.353,0.196c2.196,0.1,5.287-0.511,6.718,0.438c-2.303-0.051-6.396-0.072-6.724,0.333
		c2.384-0.364,2.915,0.591,4.954,0.039c-0.417-0.034-1.005,0.022-1.061-0.204c3.152,0.62,5.352-0.397,7.433-0.133
		c0.526,0.067,0.842,0.525,1.412,0.586c0.059,0.01,0.003-0.473,0.355-0.381c0.177,0.047,0.612,0.532,1.057,0.586
		c1.741,0.198,4.387-0.612,6.72,0.435c-5.449,0.411-14.026-0.257-19.823,0.812c3.632,0.188,8.88-0.688,11.324,0.089
		c0.057-0.228-0.056-0.55,0.359-0.574c2.484,0.712,7.09,0.391,9.897,1.23c-1.098-0.078-2.22,0.812-2.835,0.36
		c-0.249-0.521,1.667,0.153,1.42-0.371c-0.591-0.347-1.187,0.163-2.477-0.02c-0.489,0.435,0.908,0.729-0.006,0.77
		c-2.07,0.015-4.404-0.123-5.312,0.537c9.439,0.614,22.979,0.942,34.314,1.035c-0.629-0.099,0.157-0.201,0.355-0.38
		c-0.619-0.118-2.079,0.214-2.12-0.212c7.052-0.249,15.066-0.595,19.818-0.232c-0.575-0.061-0.957,0.255-0.357,0.382
		c0.845-0.27,0.869-0.286,1.066-0.567c0.56,0.195,1.422,0.191,0.703,0.581c3.078,0.095,6.341-0.736,9.201-0.119
		c-0.218,0.267-1.362,0.02-1.417,0.375c1.82,0.302,1.752-0.444,2.833-0.556c-0.083,0.363,0.396,0.428,0.349,0.77
		c5.025-0.349,8.183-0.614,12.383,0.29c0.795-1.705,5.164,0.828,5.308,0.042c-0.826-0.068-1.522-0.209-1.766-0.593
		c7.735,0.204,13.489-1.698,20.529-0.611c0.822,0.453,0.771,1.379,1.754,1.749c-0.552-0.759,0.923-0.393,1.068-0.762
		c-0.643-0.526-1.195-0.046-1.764-0.401c1.205-0.194-0.986-0.069-0.352-0.58c13.875,0.15,27.581-0.825,40.697-0.454
		c-0.007,0.249-0.619,0.168-0.708,0.378c1.478-0.175,2.295-0.751,3.186-0.357c-0.009,0.318-0.982,0.099-1.066,0.373
		c0.919,0.505,6.897-1.146,7.434-0.138c0.024,0.053-6.314-0.381-1.417,0.186c5.964,0.695,10.713,0.101,16.099-0.034
		c-0.3,0.049-0.507,0.149-0.535,0.351c3.349,0.461,7.043-0.12,9.555,0.074c-0.273,0.038-0.697-0.002-0.709,0.184
		c11.618-0.233,29.896,0.707,41.409-1.026c-0.167-0.673,0.892-0.664,1.423-0.956c-0.273-0.043-0.698-0.006-0.705-0.191
		c5.121,0.356,8.561-0.524,13.445,0.104c-2.325-0.01-6.348,0.066-7.436,0.52c3.338,0.041,6.593,0.046,8.499-0.706
		c1.689,0.421,2.933,0.321,5.655,0.426c0.062-0.225-0.055-0.545,0.36-0.574c0.419,0.031,0.8,0.349,1.062,0.008
		c-3.524-0.991-9.083-0.899-13.792-1.26c2.604-0.918,6.048,0.098,8.142-0.32c-0.28-1.028,5.446-0.424,6.023-1.11
		c-1.013-1.171-4.937,0.246-6.361-0.821c0.33-0.202,1.305-0.048,1.064-0.57c-0.63-0.108-1.468-0.107-1.766-0.397
		c2.258-0.222,3.986-1.726,3.203-2.478c1.76-0.186,1.515,0.409,1.766,0.59c-0.136-0.393,2.203,0.442,2.477-0.17
		c-0.804,0.045-1.328-0.059-1.411-0.397c1.027-0.246,2.515-0.234,3.537,0.026C281.631,32.754,286.608,32.907,282.628,32.704z
		 M34.601,30.4c0.674-0.177,4.158-0.523,4.243,0.222C37.685,30.53,34.023,30.783,34.601,30.4z M40.434,7.723
		c0.001-0.13,0.002-0.259,0.002-0.387c0.828,0.006,1.653,0.012,2.479,0.019C43.194,8.091,41.24,7.586,40.434,7.723z M42.888,10.821
		c0.045-0.49,1.188-0.372,2.125-0.371C45.343,11.15,43.618,10.71,42.888,10.821z M43.261,8.319c-0.857-0.36,2.335-0.111,3.186-0.167
		C45.738,8.833,44.829,8.196,43.261,8.319z M59.398,35.702H46.944V11.026c-0.346,0.038-0.737,0.052-1.229,0.009
		c0.285-0.064,0.73-0.195,1.229-0.328v-0.239h1.014c0.786-0.157,1.559-0.221,2.045,0h8.928c5.723,0,9.359,2.484,9.359,6.371
		c0,2.628-1.692,4.751-4.355,5.472c3.204,0.648,5.184,3.131,5.184,6.371C69.117,33.003,65.337,35.702,59.398,35.702z M79.306,35.702
		h-6.587V10.469h6.587V35.702z M107.563,35.702h-5.759L90.358,20.584v15.118h-6.155V10.469h5.795l11.446,15.19v-15.19h6.119V35.702z
		 M124.845,30.375c1.26,0,2.844-0.433,4.355-1.188v-6.371h5.688v9.935c-2.7,1.871-6.983,3.239-10.511,3.239
		c-7.703,0-13.498-5.544-13.498-12.887s5.939-12.814,13.93-12.814c3.779,0,7.775,1.439,10.367,3.743l-3.744,4.607
		c-1.8-1.691-4.355-2.771-6.659-2.771c-4.067,0-7.127,3.132-7.127,7.235C117.646,27.243,120.741,30.375,124.845,30.375z
		 M142.79,41.44c0.001-0.128,0.001-0.259,0.002-0.383c0.709,0.005,1.418,0.011,2.126,0.017
		C145.246,41.77,143.522,41.332,142.79,41.44z M184.12,4.597c-0.052-0.228-0.642-0.168-1.058-0.201
		C186.506,3.887,188.757,4.483,184.12,4.597z M173.155,4.128c-1.041-0.029-2.113-0.342-3.89-0.224
		C169.06,3.351,179.379,4.292,173.155,4.128z M164.984,27.495c0,5.399-3.383,8.495-8.783,8.495c-3.636,0-6.551-1.476-8.783-4.067
		l3.024-4.5c1.835,1.908,3.815,2.844,5.291,2.844c1.62,0,2.628-1.008,2.628-2.916V15.905h-8.639v-5.436h15.262V27.495z
		 M181.472,35.99c-7.811,0-13.642-5.544-13.642-12.922c0-7.343,5.831-12.778,13.642-12.778s13.642,5.471,13.642,12.778
		C195.114,30.446,189.283,35.99,181.472,35.99z M196.154,4.69c-0.123-0.119,2.962-0.188,4.244,0.033
		C199.114,4.991,196.461,4.997,196.154,4.69z M221.754,35.702h-5.759l-11.446-15.118v15.118h-6.155V10.469h5.795l11.446,15.19
		v-15.19h6.119V35.702z M246.954,35.702h-20.265V10.469h19.906v5.255h-13.318v4.715h12.022v5.219l-12.022,0.036v4.751h13.678V35.702
		z M260.743,35.918c-4.211,0-8.603-1.548-11.626-4.031l2.556-5.147c2.592,2.232,6.515,3.815,9.143,3.815
		c1.943,0,3.168-0.72,3.168-2.052c0-4.283-13.282-1.691-13.282-10.619c0-4.715,3.995-7.703,10.078-7.703
		c3.708,0,7.451,1.152,10.079,2.844l-2.483,5.219c-2.664-1.512-6.048-2.7-8.136-2.7c-1.584,0-2.627,0.576-2.627,1.728
		c0,4.175,13.282,1.8,13.282,10.871C270.895,33.29,266.358,35.918,260.743,35.918z"/>
	<path fill="#175A8B" d="M33.692,10.363c-1.23,0.223-2.751,0.281-3.545,0.745c1.736,0.036,4.782,0.188,3.893,0.03
		C32.595,11.183,34.103,10.871,33.692,10.363z"/>
	<path fill="#175A8B" d="M13.128,15.598c1.236,0.039,2.267-0.032,2.832-0.361C14.862,15.205,13.53,14.855,13.128,15.598z"/>
	<path fill="#175A8B" d="M274.912,7.087C276.143,7.392,275.363,7.002,274.912,7.087L274.912,7.087z"/>
	<path fill="#175A8B" d="M75.191,43.038c0.854-0.271,3.703-0.003,2.832-0.171C77.247,42.539,74.917,42.554,75.191,43.038z"/>
	<path fill="#175A8B" d="M209.646,44.079c0.848-0.111,2.568,0.26,2.833-0.172C211.497,43.673,210.328,43.67,209.646,44.079z"/>
	<path fill="#175A8B" d="M16.353,10.425C19.639,10.811,20.195,9.818,16.353,10.425L16.353,10.425z"/>
	<path fill="#175A8B" d="M237.956,44.105c4.354,0.037,9.194,0.838,12.734,0.676C247.203,44.273,242.196,43.565,237.956,44.105z"/>
	<path fill="#175A8B" d="M225.579,43.236c-0.637,0.227-2.059,0.021-2.48,0.365C223.695,43.912,225.557,43.83,225.579,43.236z"/>
	<path fill="#175A8B" d="M25.455,23.012c-2.088,0.884-2.53-0.708-3.885-0.802C21.76,22.95,24.831,24.31,25.455,23.012z"/>
	<path fill="#175A8B" d="M17.609,31.038c0.852-0.248,3.335-0.001,2.478-0.173C19.519,30.484,17.644,30.244,17.609,31.038z"/>
	<path fill="#175A8B" d="M24.693,30.13c-1.31,0.113-3.525-0.277-4.249,0.161C21.754,30.177,23.969,30.567,24.693,30.13z"/>
	<path fill="#175A8B" d="M117.988,45.872c1.191,0.075,3.562,0.512,4.598,0.036C121.366,45.576,119.063,45.221,117.988,45.872z"/>
	<path fill="#175A8B" d="M272.638,43.602c0.771-0.029,1.123,0.166,1.056,0.586c0.945-0.119,2.212-0.064,2.831-0.361
		C275.129,43.923,273.794,42.999,272.638,43.602z"/>
	<path fill="#175A8B" d="M257.073,42.905c1.701-0.202,4.942,0.587,4.955,0.037C260.255,43.112,258.42,42.32,257.073,42.905z"/>
</g>
<text transform="matrix(1 0 0 1 282.4961 35.7021)" fill="#175A8B" font-family="'Montserrat-Bold'" font-size="36">PORTRAITS</text>
</svg>
