<?xml version="1.0" encoding="utf-8"?>
<!-- Generator: Adobe Illustrator 15.0.0, SVG Export Plug-In . SVG Version: 6.00 Build 0)  -->
<!DOCTYPE svg PUBLIC "-//W3C//DTD SVG 1.1//EN" "http://www.w3.org/Graphics/SVG/1.1/DTD/svg11.dtd">
<svg version="1.1" id="Layer_1" xmlns="http://www.w3.org/2000/svg" xmlns:xlink="http://www.w3.org/1999/xlink" x="0px" y="0px"
	 width="290.747px" height="100.836px" viewBox="0 0 290.747 100.836" enable-background="new 0 0 290.747 100.836"
	 xml:space="preserve">
<path fill="#221E20" d="M2.919,0h18.527c3.655,0,6.867,1.359,9.633,4.078c1.336,1.5,2.262,2.941,2.777,4.324
	c0.633,1.711,0.948,3.27,0.948,4.676c0,3.915-1.454,7.277-4.358,10.09c-0.234,0.305-0.353,0.61-0.353,0.914
	c0,0.75,0.539,1.359,1.617,1.828c2.414,1.594,4.16,3.762,5.238,6.504c0.585,1.641,0.879,3.247,0.879,4.816
	c0,2.344-0.691,4.676-2.074,6.996c-1.688,2.625-3.996,4.442-6.926,5.449c-1.383,0.492-2.836,0.738-4.359,0.738H2.918
	c-1.032,0-1.897-0.562-2.602-1.688C0.105,48.233,0,47.823,0,47.495V2.917c0-1.031,0.562-1.898,1.688-2.602
	C2.18,0.105,2.59,0,2.919,0z M6.083,7.804V20.46c0,1.148,0.574,1.723,1.723,1.723h14.203c0.681,0,1.734-0.41,3.164-1.23
	c1.289-0.984,2.109-1.851,2.461-2.602c0.796-1.289,1.195-2.613,1.195-3.973v-0.492c0-1.805-0.68-3.527-2.039-5.168
	c-1.148-1.148-2.051-1.805-2.707-1.969c-0.938-0.445-1.629-0.668-2.074-0.668H7.806C6.657,6.082,6.083,6.656,6.083,7.804z
	 M6.083,29.953v12.656c0,1.148,0.621,1.723,1.863,1.723h17.086c0.819-0.047,1.897-0.469,3.233-1.266
	c2.392-1.781,3.586-4.055,3.586-6.82c0-2.391-0.983-4.488-2.952-6.293c-1.454-1.055-2.742-1.617-3.867-1.688H7.805
	C6.657,28.265,6.083,28.828,6.083,29.953z"/>
<path fill="#221E20" d="M58.124,0c1.172,0,2.051,0.633,2.637,1.898c0.094,0.399,0.142,0.867,0.142,1.406v43.805
	c0,1.547-0.552,2.566-1.652,3.059c-0.234,0.118-0.61,0.199-1.125,0.246c-1.172,0-2.062-0.633-2.672-1.898
	c-0.094-0.375-0.141-0.844-0.141-1.406V3.305c0-1.547,0.562-2.554,1.688-3.023C57.21,0.14,57.584,0.047,58.124,0z"/>
<path fill="#221E20" d="M69.378,0c1.172,0,2.051,0.633,2.637,1.898c0.094,0.399,0.142,0.867,0.142,1.406v43.805
	c0,1.547-0.551,2.566-1.652,3.059c-0.233,0.118-0.61,0.199-1.125,0.246c-1.172,0-2.062-0.633-2.672-1.898
	c-0.094-0.375-0.141-0.844-0.141-1.406V3.305c0-1.547,0.562-2.554,1.688-3.023C68.464,0.14,68.839,0.047,69.378,0z"/>
<path fill="#221E20" d="M45.884,15.996h0.211c1.195,0,2.215,0.562,3.06,1.688c0.397,0.633,0.598,1.266,0.598,1.898v0.387
	c0,1.148-0.562,2.133-1.688,2.953c-0.681,0.422-1.336,0.633-1.97,0.633h-0.246c-1.147,0-2.145-0.539-2.987-1.617
	c-0.445-0.726-0.668-1.453-0.668-2.18c0-0.796,0.28-1.582,0.844-2.355C43.857,16.465,44.806,15.996,45.884,15.996z M45.814,42.89
	h0.352c1.218,0,2.25,0.61,3.094,1.828c0.328,0.633,0.492,1.23,0.492,1.793v0.281c0,1.195-0.575,2.203-1.723,3.023
	c-0.633,0.399-1.254,0.598-1.863,0.598h-0.352c-1.195,0-2.216-0.585-3.06-1.758c-0.375-0.726-0.562-1.394-0.562-2.004
	c0-0.82,0.28-1.629,0.844-2.426C43.904,43.336,44.83,42.89,45.814,42.89z"/>
<g>
	<path fill="#221E20" d="M142.072,64.865h9.069c2.812,0,5.414,0.984,7.806,2.953c1.194,1.147,1.969,2.062,2.319,2.742
		c1.219,2.017,1.828,4.103,1.828,6.258v21.06c0,0.961-0.469,1.793-1.405,2.496c-0.562,0.305-1.091,0.457-1.582,0.457
		c-1.313,0-2.263-0.621-2.849-1.863c-0.305-0.844-0.832-1.266-1.582-1.266c-0.329,0-1.032,0.34-2.108,1.02
		c-0.914,0.492-1.957,0.926-3.129,1.301c-1.898,0.54-3.574,0.809-5.027,0.809h-0.457c-3.141,0-5.954-1.207-8.438-3.621
		c-1.055-1.195-1.758-2.18-2.108-2.953c-0.844-1.78-1.267-3.492-1.267-5.133v-0.387c0-3.07,1.184-5.871,3.552-8.402
		c2.53-2.25,5.25-3.375,8.155-3.375h9.949c0.867,0,1.418-0.223,1.652-0.668c0.188-0.233,0.281-0.492,0.281-0.772v-0.142
		c-0.07-0.68-0.505-1.5-1.302-2.461c-0.866-0.844-1.604-1.358-2.215-1.547c-0.586-0.304-1.641-0.457-3.164-0.457h-7.979
		c-0.821,0-1.57-0.387-2.25-1.16c-0.422-0.584-0.633-1.147-0.633-1.688v-0.246c0-0.984,0.444-1.805,1.336-2.461
		C141.064,65.029,141.58,64.865,142.072,64.865z M139.189,88.913c0,1.616,0.68,3.082,2.038,4.395
		c1.219,0.961,2.414,1.441,3.587,1.441h0.598c1.992,0,4.02-0.621,6.082-1.863c2.297-1.453,3.938-3.551,4.922-6.293
		c0.211-0.82,0.363-1.478,0.457-1.969v-0.177c0-0.585-0.34-1.042-1.02-1.37c-0.164-0.023-0.294-0.035-0.388-0.035h-10.651
		c-1.406,0-2.755,0.621-4.043,1.862C139.717,86.147,139.189,87.483,139.189,88.913z"/>
	<path fill="#221E20" d="M172.799,50.416h0.281c1.007,0,1.851,0.527,2.531,1.583c0.258,0.398,0.387,1.066,0.387,2.004v9.315
		c0,0.75,0.422,1.243,1.266,1.478h7.699c0.047,0,0.07,0.022,0.07,0.069v4.712c-0.094,0.444-0.329,0.809-0.703,1.09
		c-0.281,0.164-0.691,0.246-1.23,0.246h-4.008c-1.289,0-2.237,0.586-2.848,1.758c-0.164,0.422-0.246,0.772-0.246,1.055v18.211
		c0,1.008,0.574,1.852,1.723,2.531c0.445,0.164,0.796,0.246,1.056,0.246h2.426c0.07,0,0.104,0.022,0.104,0.07v5.977
		c0,0.047-0.034,0.07-0.104,0.07h-2.883c-1.992,0-3.504-0.328-4.535-0.984c-1.57-0.797-2.742-2.227-3.517-4.289
		c-0.258-0.75-0.387-1.852-0.387-3.305v-38.25c0-1.406,0.387-2.368,1.16-2.883C171.58,50.65,172.166,50.416,172.799,50.416z"/>
	<path fill="#221E20" d="M202.259,64.795c1.523,0,3.046,0.444,4.57,1.336c2.155,1.477,3.233,2.965,3.233,4.465
		c0,1.055-0.526,1.922-1.582,2.602c-0.491,0.258-1.008,0.387-1.547,0.387c-0.797,0-1.56-0.375-2.285-1.125
		c-0.633-1.031-1.43-1.547-2.391-1.547h-0.141c-1.055,0-1.853,0.551-2.392,1.652c-0.141,0.375-0.211,0.715-0.211,1.02
		c0,1.078,0.62,1.957,1.863,2.637c4.547,3.023,7.089,4.746,7.629,5.168c0.844,0.729,1.441,1.324,1.793,1.794
		c1.523,2.086,2.285,4.266,2.285,6.538c0,3.681-1.489,6.681-4.465,9c-1.992,1.406-4.172,2.109-6.539,2.109
		c-2.25,0-4.383-0.703-6.398-2.109c-1.312-1.006-2.284-2.061-2.918-3.163c-0.633-1.078-0.948-1.97-0.948-2.673v-0.069
		c0-0.892,0.434-1.688,1.301-2.392c0.585-0.352,1.147-0.526,1.688-0.526c1.125,0,2.017,0.517,2.672,1.547
		c0.328,0.656,0.634,1.173,0.914,1.548c1.077,1.172,2.32,1.758,3.728,1.758c1.569,0,2.883-0.646,3.938-1.935
		c0.633-0.914,0.949-1.897,0.949-2.953c0-1.897-1.043-3.444-3.129-4.642c-4.383-2.93-6.763-4.534-7.137-4.815
		c-2.203-1.851-3.306-4.171-3.306-6.961c0-2.181,0.832-4.185,2.496-6.012C197.759,65.674,199.869,64.795,202.259,64.795z"/>
	<path fill="#221E20" d="M235.938,64.795h0.599c3.703,0,7.3,1.266,10.793,3.797c1.594,1.336,2.707,2.484,3.34,3.445
		c2.391,3.281,3.586,6.879,3.586,10.793c0,4.733-1.723,8.953-5.168,12.655c-1.853,1.759-3.609,2.978-5.273,3.656
		c-2.509,1.125-4.935,1.688-7.276,1.688h-0.599c-3.75,0-7.359-1.277-10.828-3.832c-1.288-1.056-2.298-2.074-3.022-3.06
		c-2.579-3.328-3.867-7.043-3.867-11.146c0-4.453,1.547-8.473,4.641-12.059c1.595-1.617,2.742-2.602,3.445-2.953
		C229.446,65.792,232.657,64.795,235.938,64.795z M224.338,82.831v0.246c0,3.022,1.195,5.801,3.586,8.332
		c2.483,2.202,5.18,3.305,8.086,3.305h0.457c3.234,0,6.129-1.312,8.684-3.938c1.991-2.414,2.988-4.979,2.988-7.698v-0.246
		c0-3.353-1.229-6.246-3.69-8.685c-1.359-1.218-2.756-2.074-4.185-2.565c-1.358-0.445-2.59-0.668-3.69-0.668h-0.668
		c-1.97,0-3.985,0.609-6.048,1.827c-0.702,0.423-1.582,1.173-2.637,2.25c-1.243,1.57-2.017,2.966-2.32,4.185
		C224.524,80.182,224.338,81.401,224.338,82.831z"/>
	<path fill="#221E20" d="M262.481,64.831c1.008,0,1.852,0.457,2.531,1.371c0.398,0.633,0.901,0.948,1.512,0.948
		c0.259,0,0.81-0.233,1.652-0.703c2.227-1.077,4.512-1.616,6.855-1.616c4.641,0,8.612,1.805,11.918,5.414
		c1.194,1.523,1.99,2.801,2.391,3.832c0.937,1.852,1.406,4.288,1.406,7.311v15.892c0,1.431-0.399,2.392-1.195,2.884
		c-0.54,0.444-1.173,0.668-1.898,0.668c-0.772,0-1.5-0.328-2.18-0.984c-0.54-0.516-0.809-1.371-0.809-2.566V81.53
		c0-2.25-0.294-3.925-0.879-5.027c-1.125-2.391-2.967-4.078-5.521-5.062c-1.125-0.353-2.18-0.526-3.164-0.526
		c-2.766,0-5.155,1.078-7.172,3.233c-1.103,1.267-1.828,2.754-2.18,4.465c-0.142,0.61-0.211,1.582-0.211,2.918v15.75
		c0,1.431-0.399,2.392-1.195,2.884c-0.516,0.444-1.147,0.668-1.897,0.668c-0.773,0-1.5-0.328-2.181-0.984
		c-0.54-0.516-0.809-1.371-0.809-2.566V68.383c0-1.217,0.293-2.086,0.879-2.602C260.993,65.147,261.709,64.831,262.481,64.831z"/>
</g>
<path fill="#221E20" d="M132.29,52.702c-0.492-1.477-1.454-2.215-2.883-2.215c-0.586,0.093-0.984,0.199-1.195,0.316
	c-0.562,0.304-1.008,0.785-1.336,1.442l-8.191,32.344c-0.234,1.664-0.751,2.496-1.547,2.496h-0.28c-0.305,0-0.633-0.164-0.984-0.492
	l-6.223-12.375c-0.703-1.899-1.759-2.848-3.164-2.848c-0.845,0-1.595,0.375-2.25,1.125c-0.07,0.07-2.192,4.242-6.363,12.516
	c-0.54,1.383-1.125,2.074-1.758,2.074h-0.281c-0.492,0-0.891-0.316-1.195-0.949c-1.968-7.852-2.965-11.801-2.987-11.848
	c-0.553-2.238-1.061-4.289-1.533-6.188c1.974-4.522,4.601-10.553,7.903-18.14l-0.005,0.001c0.006-0.015,0.013-0.029,0.02-0.044
	c1.328-3.048,2.814-6.462,4.479-10.29l-0.014,0.004c2.231-5.146,4.849-11.189,7.862-18.148c0.984-2.062,1.477-3.34,1.477-3.832
	v-0.246c0-0.188-0.048-0.457-0.141-0.809c-0.633-1.43-1.594-2.145-2.883-2.145c-1.148,0-2.062,0.55-2.742,1.652L96.16,38.848
	c-0.353,1.219-0.938,1.828-1.758,1.828c-0.445,0-0.855-0.211-1.23-0.633c-0.233-0.469-3.492-7.968-9.772-22.5
	c-0.703-2.062-1.817-3.094-3.341-3.094c-0.211,0-0.598,0.07-1.159,0.211c-1.266,0.68-1.898,1.594-1.898,2.742v0.246
	c0,0.352,0.082,0.703,0.246,1.055c0.163,0.445,4.241,9.843,12.234,28.195c0.866,1.898,1.301,3.129,1.301,3.691v0.176
	c0,0.244-0.166,0.789-0.486,1.615c-1.397,3.193-3.104,7.089-5.125,11.699c-0.271,0.506-0.466,0.981-0.594,1.431l-0.095,0.216
	c-1.049,2.397-2.234,5.1-3.559,8.121h0c-0.001,0.003-0.004,0.011-0.005,0.014c-0.082,0.187-0.159,0.361-0.242,0.551
	c-0.24,0.448-0.419,0.872-0.546,1.277c-1.253,2.863-4.023,9.141-8.625,19.632c-1.03,1.92-1.026,3.437,0.011,4.554
	c0.146,0.153,0.459,0.389,0.945,0.705c1.361,0.463,2.461,0.303,3.301-0.48l0.181-0.166c0.257-0.239,0.459-0.54,0.604-0.898
	c0.183-0.361,3.198-7.252,9.021-20.624c0.051-0.094,0.108-0.183,0.15-0.286c0.044-0.086,0.258-0.564,0.625-1.396
	c1.788,7.167,3.624,14.501,5.518,22.028c0.539,1.383,1.429,2.074,2.672,2.074c1.077,0,1.921-0.457,2.531-1.371l7.594-15.047
	c0.493-1.313,1.055-1.97,1.688-1.97h0.281c0.258,0,0.562,0.153,0.914,0.457c0.071,0.071,2.59,5.063,7.559,14.978
	c0.75,1.969,1.828,2.953,3.234,2.953c1.218,0,2.121-0.609,2.707-1.828c3.258-12.938,6.316-25.16,9.176-36.668
	c1.453-5.578,2.181-8.602,2.181-9.07C132.372,53.194,132.337,53.006,132.29,52.702z"/>
<path fill="#ECCC2E" d="M122.122,15.996h0.211c1.383,0,2.473,0.691,3.27,2.074c0.259,0.492,0.388,1.02,0.388,1.582v0.352
	c0,1.336-0.715,2.414-2.146,3.234c-0.516,0.234-1.055,0.352-1.617,0.352c-1.594,0-2.766-0.796-3.516-2.391
	c-0.164-0.422-0.246-0.82-0.246-1.195v-0.316c0-1.594,0.844-2.754,2.531-3.48C121.419,16.066,121.794,15.996,122.122,15.996z"/>
<path fill="#488C34" d="M118.289,24.922h0.211c1.383,0,2.473,0.691,3.271,2.074c0.258,0.492,0.387,1.02,0.387,1.582v0.352
	c0,1.336-0.715,2.414-2.146,3.234c-0.516,0.234-1.055,0.352-1.617,0.352c-1.594,0-2.766-0.796-3.516-2.391
	c-0.164-0.422-0.246-0.82-0.246-1.195v-0.316c0-1.594,0.844-2.754,2.531-3.48C117.586,24.992,117.96,24.922,118.289,24.922z"/>
<path fill="#265485" d="M114.412,33.849h0.211c1.383,0,2.473,0.691,3.27,2.074c0.259,0.492,0.388,1.02,0.388,1.582v0.352
	c0,1.336-0.715,2.414-2.146,3.234c-0.516,0.234-1.055,0.352-1.617,0.352c-1.594,0-2.766-0.796-3.516-2.391
	c-0.164-0.422-0.246-0.82-0.246-1.195v-0.316c0-1.594,0.844-2.754,2.531-3.48C113.709,33.92,114.084,33.849,114.412,33.849z"/>
<path fill="#74160E" d="M110.533,42.82h0.211c1.383,0,2.473,0.691,3.27,2.074c0.259,0.492,0.388,1.02,0.388,1.582v0.352
	c0,1.336-0.716,2.414-2.146,3.234c-0.516,0.234-1.055,0.352-1.617,0.352c-1.594,0-2.766-0.796-3.516-2.391
	c-0.164-0.422-0.246-0.82-0.246-1.195v-0.316c0-1.594,0.844-2.754,2.531-3.48C109.83,42.89,110.205,42.82,110.533,42.82z"/>
</svg>
